savate-italique.ufo
<glyph name="ampersand" format="1">
  <advance width="720"/>
  <unicode hex="0026"/>
  <outline>
    <contour>
      <point x="317" y="376" type="move" smooth="yes"/>
      <point x="183" y="374"/>
      <point x="99" y="278"/>
      <point x="99" y="160" type="curve" smooth="yes"/>
      <point x="99" y="74"/>
      <point x="171" y="-10"/>
      <point x="281" y="-10" type="curve" smooth="yes"/>
      <point x="475" y="-10"/>
      <point x="632" y="124"/>
      <point x="632" y="292" type="curve"/>
      <point x="573" y="292" type="line"/>
      <point x="573" y="200"/>
      <point x="469" y="115"/>
      <point x="317" y="115" type="curve" smooth="yes"/>
      <point x="242" y="115"/>
      <point x="198" y="155"/>
      <point x="198" y="212" type="curve" smooth="yes"/>
      <point x="198" y="275"/>
      <point x="256" y="341"/>
      <point x="334" y="346" type="curve"/>
      <point x="334" y="346"/>
    </contour>
    <contour>
      <point x="414" y="464" type="line"/>
      <point x="361" y="464" type="line"/>
      <point x="304" y="464"/>
      <point x="268" y="486"/>
      <point x="268" y="519" type="curve" smooth="yes"/>
      <point x="268" y="564"/>
      <point x="312" y="594"/>
      <point x="414" y="594" type="curve" smooth="yes"/>
      <point x="442" y="594"/>
      <point x="477" y="586"/>
      <point x="492" y="572" type="curve"/>
      <point x="542" y="722" type="line"/>
      <point x="524" y="733"/>
      <point x="491" y="740"/>
      <point x="463" y="740" type="curve" smooth="yes"/>
      <point x="320" y="740"/>
      <point x="206" y="618"/>
      <point x="206" y="477" type="curve" smooth="yes"/>
      <point x="206" y="380"/>
      <point x="257" y="319"/>
      <point x="386" y="335" type="curve"/>
    </contour>
    <contour>
      <point x="407" y="217" type="curve"/>
      <point x="462" y="217" type="line"/>
      <point x="462" y="249"/>
      <point x="487" y="273"/>
      <point x="509" y="274" type="curve" smooth="yes"/>
      <point x="657" y="282" type="line" smooth="yes"/>
      <point x="722" y="286"/>
      <point x="785" y="342"/>
      <point x="785" y="434" type="curve"/>
      <point x="735" y="434" type="line"/>
      <point x="735" y="409"/>
      <point x="707" y="388"/>
      <point x="676" y="386" type="curve" smooth="yes"/>
      <point x="524" y="378" type="line" smooth="yes"/>
      <point x="474" y="375"/>
      <point x="407" y="318"/>
    </contour>
  </outline>
</glyph>
<glyph name="comma" format="1">
  <advance width="270"/>
  <unicode hex="002C"/>
  <outline>
    <contour>
      <point x="7" y="-158" type="line"/>
      <point x="83" y="-104"/>
      <point x="135" y="41"/>
      <point x="117" y="125" type="curve"/>
      <point x="240" y="125" type="line"/>
      <point x="233" y="8"/>
      <point x="133" y="-140"/>
      <point x="23" y="-172" type="curve"/>
    </contour>
  </outline>
</glyph>
<glyph name="slash" format="1">
  <advance width="470"/>
  <unicode hex="002F"/>
  <outline>
    <contour>
      <point x="497" y="775" type="line"/>
      <point x="24" y="-175" type="line"/>
      <point x="95" y="-175" type="line"/>
      <point x="568" y="775" type="line"/>
    </contour>
  </outline>
</glyph>
<glyph name="zero" format="1">
  <advance width="620"/>
  <unicode hex="0030"/>
  <outline>
    <contour>
      <point x="340" y="130" type="curve"/>
      <point x="243" y="130"/>
      <point x="165" y="183"/>
      <point x="165" y="292" type="curve" smooth="yes"/>
      <point x="165" y="470"/>
      <point x="258" y="544"/>
      <point x="428" y="544" type="curve"/>
      <point x="546" y="544"/>
      <point x="603" y="469"/>
      <point x="603" y="376" type="curve" smooth="yes"/>
      <point x="603" y="216"/>
      <point x="480" y="130"/>
    </contour>
    <contour>
      <point x="311" y="-10" type="curve"/>
      <point x="529" y="-10"/>
      <point x="677" y="168"/>
      <point x="677" y="480" type="curve" smooth="yes"/>
      <point x="677" y="638"/>
      <point x="585" y="740"/>
      <point x="469" y="740" type="curve"/>
      <point x="262" y="740"/>
      <point x="98" y="574"/>
      <point x="98" y="243" type="curve" smooth="yes"/>
      <point x="98" y="86"/>
      <point x="183" y="-10"/>
    </contour>
  </outline>
</glyph>
<glyph name="two" format="1">
  <advance width="620"/>
  <unicode hex="0032"/>
  <outline>
    <contour>
      <point x="548" y="0" type="line"/>
      <point x="578" y="141" type="line"/>
      <point x="289" y="141" type="line"/>
      <point x="422" y="236"/>
      <point x="633" y="383"/>
      <point x="633" y="561" type="curve" smooth="yes"/>
      <point x="633" y="658"/>
      <point x="567" y="740"/>
      <point x="438" y="740" type="curve" smooth="yes"/>
      <point x="337" y="740"/>
      <point x="244" y="690"/>
      <point x="196" y="633" type="curve"/>
      <point x="198" y="494" type="line"/>
      <point x="238" y="533"/>
      <point x="306" y="566"/>
      <point x="390" y="566" type="curve" smooth="yes"/>
      <point x="472" y="566"/>
      <point x="529" y="530"/>
      <point x="529" y="467" type="curve" smooth="yes"/>
      <point x="529" y="387"/>
      <point x="348" y="244"/>
      <point x="57" y="60" type="curve"/>
      <point x="44" y="0" type="line"/>
    </contour>
  </outline>
</glyph>
<glyph name="seven" format="1">
  <advance width="520"/>
  <unicode hex="0037"/>
  <outline>
    <contour>
      <point x="206" y="0" type="line"/>
      <point x="249" y="199"/>
      <point x="412" y="408"/>
      <point x="597" y="584" type="curve"/>
      <point x="628" y="730" type="line"/>
      <point x="202" y="730" type="line"/>
      <point x="164" y="550" type="line"/>
      <point x="479" y="550" type="line"/>
      <point x="363" y="453"/>
      <point x="172" y="184"/>
      <point x="132" y="0" type="curve"/>
    </contour>
  </outline>
</glyph>
<glyph name="question" format="1">
  <advance width="520"/>
  <unicode hex="003F"/>
  <outline>
    <contour>
      <point x="375" y="309" type="curve" smooth="yes"/>
      <point x="498" y="325"/>
      <point x="591" y="431"/>
      <point x="591" y="559" type="curve" smooth="yes"/>
      <point x="591" y="660"/>
      <point x="529" y="738"/>
      <point x="418" y="738" type="curve" smooth="yes"/>
      <point x="297" y="738"/>
      <point x="213" y="682"/>
      <point x="163" y="571" type="curve"/>
      <point x="209" y="512" type="line"/>
      <point x="244" y="560"/>
      <point x="306" y="585"/>
      <point x="386" y="585" type="curve" smooth="yes"/>
      <point x="496" y="585"/>
      <point x="526" y="540"/>
      <point x="525" y="507" type="curve" smooth="yes"/>
      <point x="525" y="465"/>
      <point x="493" y="447"/>
      <point x="393" y="436" type="curve" smooth="yes"/>
      <point x="280" y="423"/>
      <point x="197" y="374"/>
      <point x="197" y="258" type="curve" smooth="yes"/>
      <point x="198" y="230"/>
      <point x="208" y="189"/>
      <point x="221" y="166" type="curve"/>
      <point x="272" y="174" type="line"/>
      <point x="267" y="192"/>
      <point x="262" y="215"/>
      <point x="262" y="233" type="curve" smooth="yes"/>
      <point x="262" y="298"/>
      <point x="328" y="302"/>
    </contour>
    <contour>
      <point x="284" y="-10"/>
      <point x="315" y="21"/>
      <point x="315" y="57" type="curve" smooth="yes"/>
      <point x="315" y="90"/>
      <point x="295" y="116"/>
      <point x="262" y="116" type="curve" smooth="yes"/>
      <point x="211" y="116"/>
      <point x="176" y="96"/>
      <point x="176" y="42" type="curve" smooth="yes"/>
      <point x="176" y="14"/>
      <point x="197" y="-10"/>
      <point x="236" y="-10" type="curve" smooth="yes"/>
    </contour>
  </outline>
</glyph>
<glyph name="at" format="1">
  <advance width="870"/>
  <unicode hex="0040"/>
  <outline>
    <contour>
      <point x="667" y="96" type="curve"/>
      <point x="628" y="96"/>
      <point x="629" y="117"/>
      <point x="636" y="150" type="curve"/>
      <point x="575" y="135" type="line"/>
      <point x="576" y="39"/>
      <point x="588" y="13"/>
      <point x="654" y="13" type="curve"/>
      <point x="727" y="13"/>
      <point x="860" y="104"/>
      <point x="887" y="364" type="curve" smooth="yes"/>
      <point x="912" y="607"/>
      <point x="797" y="720"/>
      <point x="573" y="720" type="curve" smooth="yes"/>
      <point x="350" y="720"/>
      <point x="138" y="516"/>
      <point x="107" y="224" type="curve" smooth="yes"/>
      <point x="81" y="-21"/>
      <point x="170" y="-200"/>
      <point x="445" y="-200" type="curve" smooth="yes"/>
      <point x="532" y="-200"/>
      <point x="618" y="-162"/>
      <point x="675" y="-103" type="curve"/>
      <point x="652" y="-38" type="line"/>
      <point x="590" y="-70"/>
      <point x="521" y="-87"/>
      <point x="448" y="-87" type="curve"/>
      <point x="222" y="-87"/>
      <point x="149" y="31"/>
      <point x="169" y="224" type="curve" smooth="yes"/>
      <point x="193" y="451"/>
      <point x="362" y="598"/>
      <point x="553" y="598" type="curve" smooth="yes"/>
      <point x="768" y="598"/>
      <point x="839" y="496"/>
      <point x="821" y="328" type="curve" smooth="yes"/>
      <point x="809" y="211"/>
      <point x="746" y="96"/>
    </contour>
    <contour>
      <point x="636" y="150" type="line" name="_p_cornerRadius:73.0"/>
      <point x="698" y="433" type="line" smooth="yes"/>
      <point x="625" y="372" type="line" smooth="yes"/>
      <point x="575" y="135" type="line"/>
    </contour>
    <contour>
      <point x="698" y="433" type="line"/>
      <point x="664" y="470"/>
      <point x="592" y="500"/>
      <point x="514" y="500" type="curve" smooth="yes"/>
      <point x="384" y="500"/>
      <point x="275" y="373"/>
      <point x="275" y="192" type="curve"/>
      <point x="275" y="74"/>
      <point x="335" y="11"/>
      <point x="416" y="11" type="curve" smooth="yes"/>
      <point x="505" y="11"/>
      <point x="575" y="50"/>
      <point x="597" y="115" type="curve"/>
      <point x="587" y="167" type="line"/>
      <point x="560" y="127"/>
      <point x="500" y="111"/>
      <point x="439" y="112" type="curve" smooth="yes"/>
      <point x="376" y="113"/>
      <point x="330" y="156"/>
      <point x="332" y="212" type="curve" smooth="yes"/>
      <point x="336" y="300"/>
      <point x="400" y="364"/>
      <point x="498" y="364" type="curve" smooth="yes"/>
      <point x="554" y="364"/>
      <point x="610" y="345"/>
      <point x="633" y="319" type="curve"/>
    </contour>
  </outline>
</glyph>
<glyph name="B" format="1">
  <advance width="670"/>
  <unicode hex="0042"/>
  <outline>
    <contour>
      <point x="85" y="0" type="line"/>
      <point x="368" y="0" type="line" smooth="yes"/>
      <point x="542" y="0"/>
      <point x="632" y="119"/>
      <point x="631" y="246" type="curve" smooth="yes"/>
      <point x="631" y="298"/>
      <point x="611" y="348"/>
      <point x="568" y="366" type="curve"/>
      <point x="629" y="391"/>
      <point x="680" y="448"/>
      <point x="679" y="568" type="curve" smooth="yes"/>
      <point x="679" y="655"/>
      <point x="621" y="730"/>
      <point x="493" y="730" type="curve" smooth="yes"/>
      <point x="240" y="730" type="line"/>
    </contour>
    <contour>
      <point x="188" y="160" type="line"/>
      <point x="224" y="329" type="line"/>
      <point x="460" y="329" type="line" smooth="yes"/>
      <point x="538" y="329"/>
      <point x="567" y="294"/>
      <point x="567" y="258" type="curve" smooth="yes"/>
      <point x="567" y="205"/>
      <point x="522" y="160"/>
      <point x="430" y="160" type="curve" smooth="yes"/>
    </contour>
    <contour>
      <point x="239" y="401" type="line"/>
      <point x="275" y="570" type="line"/>
      <point x="492" y="570" type="line" smooth="yes"/>
      <point x="577" y="570"/>
      <point x="601" y="528"/>
      <point x="600" y="492" type="curve" smooth="yes"/>
      <point x="601" y="439"/>
      <point x="573" y="401"/>
      <point x="477" y="401" type="curve" smooth="yes"/>
    </contour>
  </outline>
</glyph>
<glyph name="C" format="1">
  <advance width="670"/>
  <unicode hex="0043"/>
  <outline>
    <contour>
      <point x="609" y="236" type="line"/>
      <point x="572" y="167"/>
      <point x="479" y="129"/>
      <point x="370" y="129" type="curve" smooth="yes"/>
      <point x="267" y="129"/>
      <point x="173" y="218"/>
      <point x="173" y="314" type="curve" smooth="yes"/>
      <point x="173" y="443"/>
      <point x="259" y="544"/>
      <point x="426" y="544" type="curve" smooth="yes"/>
      <point x="542" y="544"/>
      <point x="610" y="497"/>
      <point x="629" y="451" type="curve"/>
      <point x="714" y="518" type="line"/>
      <point x="700" y="650"/>
      <point x="607" y="740"/>
      <point x="473" y="740" type="curve" smooth="yes"/>
      <point x="244" y="740"/>
      <point x="104" y="523"/>
      <point x="104" y="254" type="curve" smooth="yes"/>
      <point x="104" y="96"/>
      <point x="208" y="-10"/>
      <point x="332" y="-10" type="curve" smooth="yes"/>
      <point x="495" y="-10"/>
      <point x="608" y="83"/>
      <point x="656" y="191" type="curve"/>
    </contour>
  </outline>
</glyph>
<glyph name="D" format="1">
  <advance width="670"/>
  <unicode hex="0044"/>
  <outline>
    <contour>
      <point x="61" y="0" type="line"/>
      <point x="308" y="0" type="line" smooth="yes"/>
      <point x="521" y="0"/>
      <point x="695" y="183"/>
      <point x="695" y="463" type="curve" smooth="yes"/>
      <point x="695" y="632"/>
      <point x="601" y="730"/>
      <point x="460" y="730" type="curve" smooth="yes"/>
      <point x="216" y="730" type="line"/>
    </contour>
    <contour>
      <point x="162" y="144" type="line"/>
      <point x="249" y="555" type="line"/>
      <point x="442" y="555" type="line" smooth="yes"/>
      <point x="557" y="555"/>
      <point x="623" y="467"/>
      <point x="623" y="365" type="curve" smooth="yes"/>
      <point x="623" y="236"/>
      <point x="507" y="144"/>
      <point x="372" y="144" type="curve" smooth="yes"/>
    </contour>
  </outline>
</glyph>
<glyph name="F" format="1">
  <advance width="570"/>
  <unicode hex="0046"/>
  <outline>
    <contour>
      <point x="84" y="0" type="line"/>
      <point x="154" y="0" type="line"/>
      <point x="211" y="268" type="line"/>
      <point x="483" y="268" type="line"/>
      <point x="510" y="396" type="line"/>
      <point x="239" y="396" type="line"/>
      <point x="271" y="547" type="line"/>
      <point x="619" y="547" type="line"/>
      <point x="658" y="730" type="line"/>
      <point x="239" y="730" type="line"/>
    </contour>
  </outline>
</glyph>
<glyph name="G" format="1">
  <advance width="720"/>
  <unicode hex="0047"/>
  <outline>
    <contour>
      <point x="698" y="329" type="curve"/>
      <point x="640" y="329" type="line"/>
      <point x="621" y="189"/>
      <point x="516" y="129"/>
      <point x="372" y="129" type="curve" smooth="yes"/>
      <point x="244" y="129"/>
      <point x="197" y="216"/>
      <point x="197" y="312" type="curve" smooth="yes"/>
      <point x="205" y="446"/>
      <point x="282" y="553"/>
      <point x="464" y="553" type="curve" smooth="yes"/>
      <point x="560" y="553"/>
      <point x="625" y="529"/>
      <point x="656" y="475" type="curve"/>
      <point x="735" y="542" type="line"/>
      <point x="724" y="663"/>
      <point x="644" y="740"/>
      <point x="502" y="740" type="curve" smooth="yes"/>
      <point x="285" y="740"/>
      <point x="132" y="537"/>
      <point x="132" y="260" type="curve" smooth="yes"/>
      <point x="132" y="99"/>
      <point x="198" y="-10"/>
      <point x="340" y="-10" type="curve" smooth="yes"/>
      <point x="519" y="-10"/>
      <point x="644" y="74"/>
    </contour>
    <contour>
      <point x="433" y="291" type="line"/>
      <point x="690" y="291" type="line"/>
      <point x="706" y="364" type="line"/>
      <point x="449" y="364" type="line"/>
    </contour>
    <contour>
      <point x="576" y="0" type="line"/>
      <point x="628" y="0" type="line"/>
      <point x="695" y="314" type="line"/>
      <point x="591" y="156" type="line"/>
    </contour>
  </outline>
</glyph>
<glyph name="H" format="1">
  <advance width="670"/>
  <unicode hex="0048"/>
  <outline>
    <contour>
      <point x="151" y="0" type="line"/>
      <point x="209" y="275" type="line"/>
      <point x="581" y="275" type="line"/>
      <point x="523" y="0" type="line"/>
      <point x="591" y="0" type="line"/>
      <point x="746" y="730" type="line"/>
      <point x="677" y="730" type="line"/>
      <point x="618" y="450" type="line"/>
      <point x="246" y="450" type="line"/>
      <point x="305" y="730" type="line"/>
      <point x="236" y="730" type="line"/>
      <point x="81" y="0" type="line"/>
    </contour>
  </outline>
</glyph>
<glyph name="I" format="1">
  <advance width="470"/>
  <unicode hex="0049"/>
  <outline>
    <contour>
      <point x="410" y="0" type="line"/>
      <point x="440" y="141" type="line"/>
      <point x="302" y="141" type="line"/>
      <point x="389" y="550" type="line"/>
      <point x="521" y="550" type="line"/>
      <point x="559" y="730" type="line"/>
      <point x="221" y="730" type="line"/>
      <point x="183" y="550" type="line"/>
      <point x="319" y="550" type="line"/>
      <point x="232" y="141" type="line"/>
      <point x="90" y="141" type="line"/>
      <point x="60" y="0" type="line"/>
    </contour>
  </outline>
</glyph>
<glyph name="L" format="1">
  <advance width="470"/>
  <unicode hex="004C"/>
  <outline>
    <contour>
      <point x="416" y="0" type="line"/>
      <point x="447" y="145" type="line"/>
      <point x="155" y="145" type="line"/>
      <point x="279" y="730" type="line"/>
      <point x="213" y="730" type="line"/>
      <point x="58" y="0" type="line"/>
    </contour>
  </outline>
</glyph>
<glyph name="M" format="1">
  <advance width="870"/>
  <unicode hex="004D"/>
  <outline>
    <contour>
      <point x="385" y="0" type="line"/>
      <point x="501" y="0" type="line"/>
      <point x="860" y="640" type="line"/>
      <point x="842" y="640" type="line"/>
      <point x="706" y="0" type="line"/>
      <point x="774" y="0" type="line"/>
      <point x="929" y="730" type="line"/>
      <point x="782" y="730" type="line"/>
      <point x="465" y="119" type="line"/>
      <point x="411" y="730" type="line"/>
      <point x="250" y="730" type="line"/>
      <point x="95" y="0" type="line"/>
      <point x="167" y="0" type="line"/>
      <point x="303" y="640" type="line"/>
      <point x="286" y="639" type="line"/>
    </contour>
  </outline>
</glyph>
<glyph name="N" format="1">
  <advance width="720"/>
  <unicode hex="004E"/>
  <outline>
    <contour>
      <point x="494" y="0" type="line"/>
      <point x="635" y="0" type="line"/>
      <point x="790" y="730" type="line"/>
      <point x="721" y="730" type="line"/>
      <point x="576" y="45" type="line"/>
      <point x="595" y="83" type="line"/>
      <point x="403" y="730" type="line"/>
      <point x="241" y="730" type="line"/>
      <point x="86" y="0" type="line"/>
      <point x="155" y="0" type="line"/>
      <point x="289" y="630" type="line"/>
      <point x="275" y="607" type="line"/>
    </contour>
  </outline>
</glyph>
<glyph name="O" format="1">
  <advance width="720"/>
  <unicode hex="004F"/>
  <outline>
    <contour>
      <point x="399" y="129" type="curve"/>
      <point x="293" y="129"/>
      <point x="200" y="211"/>
      <point x="199" y="325" type="curve" smooth="yes"/>
      <point x="199" y="441"/>
      <point x="283" y="544"/>
      <point x="467" y="544" type="curve"/>
      <point x="598" y="544"/>
      <point x="672" y="460"/>
      <point x="671" y="370" type="curve" smooth="yes"/>
      <point x="671" y="189"/>
      <point x="536" y="129"/>
    </contour>
    <contour>
      <point x="369" y="-10" type="curve"/>
      <point x="576" y="-10"/>
      <point x="744" y="176"/>
      <point x="744" y="470" type="curve" smooth="yes"/>
      <point x="744" y="632"/>
      <point x="643" y="740"/>
      <point x="509" y="740" type="curve"/>
      <point x="298" y="740"/>
      <point x="132" y="566"/>
      <point x="132" y="255" type="curve" smooth="yes"/>
      <point x="132" y="94"/>
      <point x="233" y="-10"/>
    </contour>
  </outline>
</glyph>
<glyph name="R" format="1">
  <advance width="670"/>
  <unicode hex="0052"/>
  <outline>
    <contour>
      <point x="418" y="272" type="line" smooth="yes"/>
      <point x="579" y="272"/>
      <point x="658" y="385"/>
      <point x="658" y="542" type="curve" smooth="yes"/>
      <point x="658" y="650"/>
      <point x="592" y="730"/>
      <point x="453" y="730" type="curve"/>
      <point x="240" y="730" type="line"/>
      <point x="85" y="0" type="line"/>
      <point x="153" y="0" type="line"/>
      <point x="211" y="272" type="line"/>
    </contour>
    <contour>
      <point x="417" y="383" type="curve"/>
      <point x="236" y="383" type="line"/>
      <point x="276" y="569" type="line"/>
      <point x="456" y="569" type="line"/>
      <point x="545" y="569"/>
      <point x="587" y="533"/>
      <point x="587" y="488" type="curve" smooth="yes"/>
      <point x="587" y="424"/>
      <point x="539" y="383"/>
    </contour>
    <contour>
      <point x="585" y="0" type="curve"/>
      <point x="604" y="91" type="line"/>
      <point x="543" y="91"/>
      <point x="508" y="126"/>
      <point x="494" y="177" type="curve" smooth="yes"/>
      <point x="448" y="345" type="line"/>
      <point x="377" y="333" type="line"/>
      <point x="461" y="62" type="line" smooth="yes"/>
      <point x="474" y="19"/>
      <point x="507" y="-10"/>
      <point x="545" y="-10" type="curve" smooth="yes"/>
      <point x="557" y="-10"/>
      <point x="574" y="-7"/>
    </contour>
  </outline>
</glyph>
<glyph name="S" format="1">
  <advance width="670"/>
  <unicode hex="0053"/>
  <outline>
    <contour>
      <point x="337" y="-10" type="curve" smooth="yes"/>
      <point x="546" y="-10"/>
      <point x="660" y="80"/>
      <point x="660" y="209" type="curve" smooth="yes"/>
      <point x="660" y="307"/>
      <point x="604" y="377"/>
      <point x="427" y="400" type="curve" smooth="yes"/>
      <point x="300" y="416"/>
      <point x="267" y="447"/>
      <point x="267" y="479" type="curve" smooth="yes"/>
      <point x="267" y="531"/>
      <point x="314" y="571"/>
      <point x="460" y="571" type="curve" smooth="yes"/>
      <point x="572" y="571"/>
      <point x="637" y="529"/>
      <point x="666" y="499" type="curve"/>
      <point x="724" y="630" type="line"/>
      <point x="703" y="685"/>
      <point x="624" y="740"/>
      <point x="494" y="740" type="curve" smooth="yes"/>
      <point x="302" y="740"/>
      <point x="188" y="627"/>
      <point x="188" y="499" type="curve" smooth="yes"/>
      <point x="188" y="409"/>
      <point x="235" y="349"/>
      <point x="407" y="332" type="curve" smooth="yes"/>
      <point x="533" y="320"/>
      <point x="574" y="275"/>
      <point x="573" y="228" type="curve" smooth="yes"/>
      <point x="572" y="169"/>
      <point x="523" y="137"/>
      <point x="368" y="137" type="curve" smooth="yes"/>
      <point x="247" y="137"/>
      <point x="161" y="192"/>
      <point x="147" y="261" type="curve"/>
      <point x="75" y="124" type="line"/>
      <point x="89" y="50"/>
      <point x="201" y="-10"/>
    </contour>
  </outline>
</glyph>
<glyph name="T" format="1">
  <advance width="570"/>
  <unicode hex="0054"/>
  <outline>
    <contour>
      <point x="155" y="550" type="line"/>
      <point x="369" y="550" type="line"/>
      <point x="252" y="0" type="line"/>
      <point x="321" y="0" type="line"/>
      <point x="438" y="550" type="line"/>
      <point x="649" y="550" type="line"/>
      <point x="687" y="730" type="line"/>
      <point x="193" y="730" type="line"/>
    </contour>
  </outline>
</glyph>
<glyph name="W" format="1">
  <advance width="920"/>
  <unicode hex="0057"/>
  <outline>
    <contour>
      <point x="577" y="0" type="line"/>
      <point x="683" y="0" type="line"/>
      <point x="1052" y="729" type="line"/>
      <point x="927" y="729" type="line"/>
      <point x="632" y="126" type="line"/>
      <point x="643" y="126" type="line"/>
      <point x="602" y="599" type="line"/>
      <point x="545" y="599" type="line"/>
      <point x="285" y="123" type="line"/>
      <point x="294" y="123" type="line"/>
      <point x="251" y="730" type="line"/>
      <point x="180" y="730" type="line"/>
      <point x="228" y="0" type="line"/>
      <point x="338" y="0" type="line"/>
      <point x="561" y="397" type="line"/>
      <point x="543" y="397" type="line"/>
    </contour>
  </outline>
</glyph>
<glyph name="X" format="1">
  <advance width="770"/>
  <unicode hex="0058"/>
  <outline>
    <contour>
      <point x="201" y="750" type="line"/>
      <point x="530" y="0" type="line"/>
      <point x="619" y="0" type="line"/>
      <point x="277" y="750" type="line"/>
    </contour>
    <contour>
      <point x="634" y="750" type="line"/>
      <point x="19" y="0" type="line"/>
      <point x="181" y="0" type="line"/>
      <point x="787" y="750" type="line"/>
    </contour>
  </outline>
</glyph>
<glyph name="Z" format="1">
  <advance width="670"/>
  <unicode hex="005A"/>
  <outline>
    <contour>
      <point x="53" y="0" type="line"/>
      <point x="606" y="0" type="line"/>
      <point x="636" y="141" type="line"/>
      <point x="229" y="141" type="line"/>
      <point x="228" y="120" type="line"/>
      <point x="774" y="699" type="line"/>
      <point x="781" y="730" type="line"/>
      <point x="241" y="730" type="line"/>
      <point x="201" y="545" type="line"/>
      <point x="579" y="545" type="line"/>
      <point x="583" y="584" type="line"/>
      <point x="62" y="41" type="line"/>
    </contour>
  </outline>
</glyph>
<glyph name="bracketleft" format="1">
  <advance width="320"/>
  <unicode hex="005B"/>
  <outline>
    <contour>
      <point x="7" y="-200" type="line"/>
      <point x="199" y="-200" type="line"/>
      <point x="236" y="-26" type="line"/>
      <point x="112" y="-26" type="line"/>
      <point x="251" y="626" type="line"/>
      <point x="374" y="626" type="line"/>
      <point x="411" y="800" type="line"/>
      <point x="220" y="800" type="line"/>
    </contour>
  </outline>
</glyph>
<glyph name="bracketright" format="1">
  <advance width="320"/>
  <unicode hex="005D"/>
  <outline>
    <contour>
      <point x="227" y="-200" type="line"/>
      <point x="440" y="800" type="line"/>
      <point x="247" y="800" type="line"/>
      <point x="210" y="626" type="line"/>
      <point x="335" y="626" type="line"/>
      <point x="196" y="-26" type="line"/>
      <point x="72" y="-26" type="line"/>
      <point x="35" y="-200" type="line"/>
    </contour>
  </outline>
</glyph>
<glyph name="c" format="1">
  <advance width="520"/>
  <unicode hex="0063"/>
  <outline>
    <contour>
      <point x="269" y="-10" type="curve" smooth="yes"/>
      <point x="374" y="-10"/>
      <point x="455" y="34"/>
      <point x="504" y="112" type="curve"/>
      <point x="456" y="163" type="line"/>
      <point x="427" y="124"/>
      <point x="370" y="101"/>
      <point x="290" y="101" type="curve" smooth="yes"/>
      <point x="200" y="101"/>
      <point x="158" y="165"/>
      <point x="157" y="227" type="curve" smooth="yes"/>
      <point x="151" y="318"/>
      <point x="239" y="402"/>
      <point x="352" y="402" type="curve" smooth="yes"/>
      <point x="432" y="402"/>
      <point x="467" y="375"/>
      <point x="487" y="338" type="curve"/>
      <point x="551" y="425" type="line"/>
      <point x="539" y="510"/>
      <point x="489" y="560"/>
      <point x="381" y="560" type="curve" smooth="yes"/>
      <point x="214" y="560"/>
      <point x="93" y="422"/>
      <point x="93" y="188" type="curve" smooth="yes"/>
      <point x="93" y="67"/>
      <point x="171" y="-10"/>
    </contour>
  </outline>
</glyph>
<glyph name="e" format="1">
  <advance width="520"/>
  <unicode hex="0065"/>
  <outline>
    <contour>
      <point x="155" y="346"/>
      <point x="240" y="418"/>
      <point x="348" y="418" type="curve" smooth="yes"/>
      <point x="451" y="418"/>
      <point x="485" y="390"/>
      <point x="485" y="356" type="curve" smooth="yes"/>
      <point x="485" y="320"/>
      <point x="444" y="289"/>
      <point x="349" y="283" type="curve" smooth="yes"/>
      <point x="136" y="270" type="line"/>
      <point x="123" y="211" type="line"/>
      <point x="318" y="221" type="line" smooth="yes"/>
      <point x="485" y="230"/>
      <point x="549" y="275"/>
      <point x="549" y="388" type="curve" smooth="yes"/>
      <point x="549" y="491"/>
      <point x="480" y="560"/>
      <point x="382" y="560" type="curve" smooth="yes"/>
      <point x="220" y="560"/>
      <point x="93" y="448"/>
      <point x="93" y="198" type="curve" smooth="yes"/>
      <point x="93" y="85"/>
      <point x="146" y="-10"/>
      <point x="264" y="-10" type="curve" smooth="yes"/>
      <point x="372" y="-10"/>
      <point x="459" y="40"/>
      <point x="501" y="116" type="curve"/>
      <point x="463" y="151" type="line"/>
      <point x="429" y="114"/>
      <point x="367" y="100"/>
      <point x="296" y="101" type="curve" smooth="yes"/>
      <point x="204" y="102"/>
      <point x="155" y="148"/>
      <point x="155" y="228" type="curve" smooth="yes"/>
    </contour>
  </outline>
</glyph>
<glyph name="g" format="1">
  <advance width="520"/>
  <unicode hex="0067"/>
  <outline>
    <contour>
      <point x="434" y="126" type="line"/>
      <point x="401" y="-26"/>
      <point x="348" y="-83"/>
      <point x="226" y="-83" type="curve" smooth="yes"/>
      <point x="150" y="-83"/>
      <point x="104" y="-61"/>
      <point x="76" y="-21" type="curve"/>
      <point x="38" y="-120" type="line"/>
      <point x="58" y="-173"/>
      <point x="115" y="-210"/>
      <point x="203" y="-210" type="curve" smooth="yes"/>
      <point x="372" y="-210"/>
      <point x="433" y="-137"/>
      <point x="515" y="250" type="curve" smooth="yes"/>
      <point x="515" y="250"/>
      <point x="581" y="550"/>
      <point x="581" y="550" type="curve"/>
      <point x="524" y="550" type="line"/>
    </contour>
    <contour>
      <point x="281" y="137" type="curve"/>
      <point x="203" y="137"/>
      <point x="151" y="173"/>
      <point x="150" y="246" type="curve" smooth="yes"/>
      <point x="144" y="322"/>
      <point x="207" y="402"/>
      <point x="337" y="402" type="curve"/>
      <point x="432" y="402"/>
      <point x="467" y="351"/>
      <point x="468" y="292" type="curve" smooth="yes"/>
      <point x="468" y="190"/>
      <point x="380" y="137"/>
    </contour>
    <contour>
      <point x="256" y="30" type="curve"/>
      <point x="413" y="30"/>
      <point x="529" y="184"/>
      <point x="529" y="356" type="curve" smooth="yes"/>
      <point x="528" y="482"/>
      <point x="471" y="560"/>
      <point x="371" y="560" type="curve"/>
      <point x="189" y="560"/>
      <point x="87" y="432"/>
      <point x="87" y="211" type="curve" smooth="yes"/>
      <point x="87" y="92"/>
      <point x="150" y="30"/>
    </contour>
  </outline>
</glyph>
<glyph name="h" format="1">
  <advance width="520"/>
  <unicode hex="0068"/>
  <outline>
    <contour>
      <point x="398" y="0" type="line"/>
      <point x="502" y="129"/>
      <point x="538" y="276"/>
      <point x="538" y="387" type="curve"/>
      <point x="538" y="501"/>
      <point x="473" y="560"/>
      <point x="396" y="560" type="curve"/>
      <point x="284" y="560"/>
      <point x="218" y="510"/>
      <point x="188" y="394" type="curve"/>
      <point x="200" y="387" type="line"/>
      <point x="284" y="780" type="line"/>
      <point x="222" y="780" type="line"/>
      <point x="56" y="0" type="line"/>
      <point x="118" y="0" type="line"/>
      <point x="189" y="332" type="line"/>
      <point x="165" y="257" type="line"/>
      <point x="204" y="351"/>
      <point x="269" y="388"/>
      <point x="354" y="388" type="curve" smooth="yes"/>
      <point x="420" y="388"/>
      <point x="455" y="351"/>
      <point x="455" y="284" type="curve" smooth="yes"/>
      <point x="455" y="208"/>
      <point x="421" y="109"/>
      <point x="337" y="0" type="curve"/>
    </contour>
  </outline>
</glyph>
<glyph name="l" format="1">
  <advance width="370"/>
  <unicode hex="006C"/>
  <outline>
    <contour>
      <point x="236" y="-10" type="curve" smooth="yes"/>
      <point x="305" y="-10"/>
      <point x="351" y="20"/>
      <point x="379" y="52" type="curve"/>
      <point x="375" y="161" type="line"/>
      <point x="353" y="141"/>
      <point x="322" y="130"/>
      <point x="283" y="130" type="curve" smooth="yes"/>
      <point x="227" y="130"/>
      <point x="212" y="165"/>
      <point x="225" y="225" type="curve"/>
      <point x="343" y="780" type="line"/>
      <point x="201" y="780" type="line"/>
      <point x="169" y="630" type="line"/>
      <point x="245" y="630" type="line"/>
      <point x="143" y="149" type="line"/>
      <point x="119" y="37"/>
      <point x="150" y="-10"/>
    </contour>
  </outline>
</glyph>
<glyph name="m" format="1">
  <advance width="820"/>
  <unicode hex="006D"/>
  <outline>
    <contour>
      <point x="755" y="0" type="line"/>
      <point x="827" y="334"/>
      <point x="836" y="376"/>
      <point x="836" y="410" type="curve" smooth="yes"/>
      <point x="836" y="507"/>
      <point x="792" y="560"/>
      <point x="702" y="560" type="curve" smooth="yes"/>
      <point x="586" y="560"/>
      <point x="524" y="495"/>
      <point x="490" y="382" type="curve"/>
      <point x="485" y="257" type="line"/>
      <point x="525" y="351"/>
      <point x="585" y="388"/>
      <point x="660" y="388" type="curve" smooth="yes"/>
      <point x="715" y="388"/>
      <point x="753" y="350"/>
      <point x="753" y="290" type="curve" smooth="yes"/>
      <point x="753" y="253"/>
      <point x="746" y="203"/>
      <point x="694" y="0" type="curve"/>
    </contour>
    <contour>
      <point x="438" y="0" type="line"/>
      <point x="512" y="345"/>
      <point x="512" y="380"/>
      <point x="514" y="411" type="curve"/>
      <point x="514" y="521"/>
      <point x="478" y="560"/>
      <point x="382" y="560" type="curve" smooth="yes"/>
      <point x="286" y="560"/>
      <point x="228" y="499"/>
      <point x="196" y="392" type="curve"/>
      <point x="210" y="387" type="line"/>
      <point x="245" y="550" type="line"/>
      <point x="182" y="550" type="line"/>
      <point x="65" y="0" type="line"/>
      <point x="128" y="0" type="line"/>
      <point x="199" y="332" type="line"/>
      <point x="171" y="252" type="line"/>
      <point x="207" y="344"/>
      <point x="268" y="388"/>
      <point x="337" y="388" type="curve" smooth="yes"/>
      <point x="398" y="388"/>
      <point x="437" y="354"/>
      <point x="437" y="296" type="curve" smooth="yes"/>
      <point x="437" y="258"/>
      <point x="429" y="206"/>
      <point x="377" y="0" type="curve"/>
    </contour>
  </outline>
</glyph>
<glyph name="o" format="1">
  <advance width="520"/>
  <unicode hex="006F"/>
  <outline>
    <contour>
      <point x="284" y="107" type="curve"/>
      <point x="208" y="107"/>
      <point x="148" y="145"/>
      <point x="146" y="225" type="curve" smooth="yes"/>
      <point x="146" y="307"/>
      <point x="213" y="402"/>
      <point x="347" y="402" type="curve"/>
      <point x="460" y="402"/>
      <point x="497" y="328"/>
      <point x="484" y="255" type="curve" smooth="yes"/>
      <point x="460" y="136"/>
      <point x="374" y="107"/>
    </contour>
    <contour>
      <point x="259" y="-10" type="curve"/>
      <point x="438" y="-10"/>
      <point x="554" y="147"/>
      <point x="554" y="357" type="curve" smooth="yes"/>
      <point x="554" y="487"/>
      <point x="487" y="560"/>
      <point x="381" y="560" type="curve"/>
      <point x="207" y="560"/>
      <point x="84" y="423"/>
      <point x="84" y="194" type="curve"/>
      <point x="84" y="69"/>
      <point x="154" y="-10"/>
    </contour>
  </outline>
</glyph>
<glyph name="w" format="1">
  <advance width="720"/>
  <unicode hex="0077"/>
  <outline>
    <contour>
      <point x="473" y="0" type="line"/>
      <point x="557" y="0" type="line"/>
      <point x="643" y="59"/>
      <point x="764" y="285"/>
      <point x="764" y="433" type="curve" smooth="yes"/>
      <point x="764" y="474"/>
      <point x="748" y="524"/>
      <point x="728" y="550" type="curve"/>
      <point x="621" y="550" type="line"/>
      <point x="649" y="518"/>
      <point x="658" y="480"/>
      <point x="658" y="432" type="curve" smooth="yes"/>
      <point x="658" y="295"/>
      <point x="571" y="155"/>
      <point x="519" y="108" type="curve"/>
      <point x="479" y="451" type="line"/>
      <point x="419" y="451" type="line"/>
      <point x="257" y="132" type="line"/>
      <point x="227" y="550" type="line"/>
      <point x="157" y="550" type="line"/>
      <point x="202" y="0" type="line"/>
      <point x="296" y="0" type="line"/>
      <point x="438" y="262" type="line"/>
    </contour>
  </outline>
</glyph>
<glyph name="x" format="1">
  <advance width="520"/>
  <unicode hex="0078"/>
  <outline>
    <contour>
      <point x="158" y="550" type="line"/>
      <point x="276" y="262" type="line"/>
      <point x="355" y="262" type="line"/>
      <point x="238" y="550" type="line"/>
    </contour>
    <contour>
      <point x="472" y="550" type="line"/>
      <point x="289" y="314" type="line"/>
      <point x="30" y="0" type="line"/>
      <point x="174" y="0" type="line"/>
      <point x="356" y="239" type="line"/>
      <point x="604" y="550" type="line"/>
    </contour>
    <contour>
      <point x="290" y="288" type="line"/>
      <point x="409" y="0" type="line"/>
      <point x="490" y="0" type="line"/>
      <point x="367" y="288" type="line"/>
    </contour>
  </outline>
</glyph>
<glyph name="z" format="1">
  <advance width="520"/>
  <unicode hex="007A"/>
  <outline>
    <contour>
      <point x="213" y="348" type="line"/>
      <point x="209" y="381"/>
      <point x="242" y="403"/>
      <point x="301" y="403" type="curve" smooth="yes"/>
      <point x="412" y="403" type="line"/>
      <point x="606" y="550" type="line"/>
      <point x="327" y="550" type="line" smooth="yes"/>
      <point x="219" y="550"/>
      <point x="167" y="492"/>
      <point x="149" y="432" type="curve" smooth="yes"/>
      <point x="137" y="392"/>
      <point x="144" y="366"/>
      <point x="157" y="344" type="curve"/>
    </contour>
    <contour>
      <point x="31" y="0" type="line" smooth="yes"/>
      <point x="113" y="0" type="line"/>
      <point x="607" y="550" type="line"/>
      <point x="535" y="550" type="line"/>
    </contour>
    <contour>
      <point x="145" y="88" type="line"/>
      <point x="167" y="31"/>
      <point x="264" y="-9"/>
      <point x="324" y="-9" type="curve" smooth="yes"/>
      <point x="433" y="-9"/>
      <point x="505" y="70"/>
      <point x="506" y="161" type="curve"/>
      <point x="459" y="178" type="line"/>
      <point x="459" y="139"/>
      <point x="421" y="111"/>
      <point x="343" y="111" type="curve" smooth="yes"/>
      <point x="283" y="111"/>
      <point x="227" y="123"/>
      <point x="198" y="164" type="curve"/>
    </contour>
  </outline>
</glyph>
<glyph name="braceleft" format="1">
  <advance width="320"/>
  <unicode hex="007B"/>
  <outline>
    <contour>
      <point x="129" y="143" type="curve"/>
      <point x="70" y="-75"/>
      <point x="123" y="-171"/>
      <point x="223" y="-210" type="curve"/>
      <point x="239" y="-9" type="line"/>
      <point x="175" y="7"/>
      <point x="156" y="70"/>
      <point x="194" y="183" type="curve" smooth="yes"/>
      <point x="208" y="223"/>
      <point x="199" y="264"/>
      <point x="142" y="278" type="curve"/>
      <point x="205" y="299"/>
      <point x="231" y="326"/>
      <point x="234" y="367" type="curve"/>
      <point x="248" y="520"/>
      <point x="310" y="603"/>
      <point x="388" y="622" type="curve"/>
      <point x="446" y="810" type="line"/>
      <point x="326" y="768"/>
      <point x="229" y="671"/>
      <point x="185" y="407" type="curve"/>
      <point x="180" y="385"/>
      <point x="156" y="355"/>
      <point x="99" y="366" type="curve"/>
      <point x="62" y="194" type="line"/>
      <point x="121" y="204"/>
      <point x="134" y="169"/>
    </contour>
  </outline>
</glyph>
<glyph name="braceright" format="1">
  <advance width="320"/>
  <unicode hex="007D"/>
  <outline>
    <contour>
      <point x="241" y="143" type="curve"/>
      <point x="246" y="169"/>
      <point x="275" y="204"/>
      <point x="328" y="194" type="curve"/>
      <point x="365" y="366" type="line"/>
      <point x="304" y="355"/>
      <point x="292" y="385"/>
      <point x="297" y="407" type="curve"/>
      <point x="365" y="671"/>
      <point x="308" y="768"/>
      <point x="206" y="810" type="curve"/>
      <point x="184" y="622" type="line"/>
      <point x="254" y="603"/>
      <point x="282" y="520"/>
      <point x="230" y="367" type="curve" smooth="yes"/>
      <point x="217" y="326"/>
      <point x="231" y="299"/>
      <point x="284" y="278" type="curve"/>
      <point x="221" y="264"/>
      <point x="196" y="223"/>
      <point x="192" y="183" type="curve" smooth="yes"/>
      <point x="182" y="70"/>
      <point x="137" y="7"/>
      <point x="65" y="-9" type="curve"/>
      <point x="-3" y="-210" type="line"/>
      <point x="113" y="-171"/>
      <point x="206" y="-75"/>
    </contour>
  </outline>
</glyph>
<glyph name="cent" format="1">
  <advance width="570"/>
  <unicode hex="00A2"/>
  <outline>
    <contour>
      <point x="430" y="635" type="line"/>
      <point x="140" y="-85" type="line"/>
      <point x="213" y="-85" type="line"/>
      <point x="503" y="635" type="line"/>
    </contour>
    <component base="c" xOffset="10"/>
  </outline>
</glyph>
<glyph name="currency" format="1">
  <advance width="520"/>
  <unicode hex="00A4"/>
  <outline>
    <contour>
      <point x="302" y="185" type="curve"/>
      <point x="237" y="185"/>
      <point x="190" y="218"/>
      <point x="190" y="281" type="curve" smooth="yes"/>
      <point x="190" y="337"/>
      <point x="236" y="414"/>
      <point x="350" y="414" type="curve"/>
      <point x="430" y="414"/>
      <point x="465" y="370"/>
      <point x="464" y="320" type="curve" smooth="yes"/>
      <point x="464" y="219"/>
      <point x="386" y="185"/>
    </contour>
    <contour>
      <point x="284" y="101" type="curve"/>
      <point x="429" y="101"/>
      <point x="524" y="208"/>
      <point x="524" y="362" type="curve" smooth="yes"/>
      <point x="524" y="462"/>
      <point x="467" y="529"/>
      <point x="375" y="529" type="curve"/>
      <point x="242" y="529"/>
      <point x="134" y="414"/>
      <point x="134" y="266" type="curve" smooth="yes"/>
      <point x="134" y="170"/>
      <point x="192" y="101"/>
    </contour>
    <contour>
      <point x="283" y="477" type="line"/>
      <point x="232" y="560" type="line"/>
      <point x="164" y="506" type="line"/>
      <point x="214" y="425" type="line"/>
    </contour>
    <contour>
      <point x="481" y="419" type="line"/>
      <point x="572" y="506" type="line"/>
      <point x="526" y="560" type="line"/>
      <point x="436" y="472" type="line"/>
    </contour>
    <contour>
      <point x="423" y="67" type="line"/>
      <point x="490" y="122" type="line"/>
      <point x="442" y="197" type="line"/>
      <point x="371" y="149" type="line"/>
    </contour>
    <contour>
      <point x="127" y="67" type="line"/>
      <point x="214" y="151" type="line"/>
      <point x="166" y="202" type="line"/>
      <point x="82" y="122" type="line"/>
    </contour>
  </outline>
</glyph>
<glyph name="brokenbar" format="1">
  <advance width="320"/>
  <unicode hex="00A6"/>
  <outline>
    <contour>
      <point x="291" y="775" type="line"/>
      <point x="203" y="360" type="line"/>
      <point x="275" y="379" type="line"/>
      <point x="359" y="775" type="line"/>
    </contour>
    <contour>
      <point x="171" y="213" type="line"/>
      <point x="89" y="-175" type="line"/>
      <point x="157" y="-175" type="line"/>
      <point x="243" y="232" type="line"/>
    </contour>
  </outline>
</glyph>
<glyph name="section" format="1">
  <advance width="520"/>
  <unicode hex="00A7"/>
  <outline>
    <contour>
      <point x="426" y="789" type="curve" smooth="yes"/>
      <point x="251" y="789"/>
      <point x="203" y="670"/>
      <point x="203" y="588" type="curve" smooth="yes"/>
      <point x="202" y="512"/>
      <point x="245" y="452"/>
      <point x="351" y="440" type="curve" smooth="yes"/>
      <point x="433" y="431"/>
      <point x="457" y="411"/>
      <point x="457" y="382" type="curve" smooth="yes"/>
      <point x="457" y="355"/>
      <point x="438" y="302"/>
      <point x="329" y="302" type="curve"/>
      <point x="427" y="264" type="line"/>
      <point x="483" y="289"/>
      <point x="540" y="326"/>
      <point x="540" y="401" type="curve" smooth="yes"/>
      <point x="540" y="468"/>
      <point x="498" y="528"/>
      <point x="379" y="541" type="curve" smooth="yes"/>
      <point x="294" y="550"/>
      <point x="276" y="576"/>
      <point x="276" y="596" type="curve" smooth="yes"/>
      <point x="276" y="636"/>
      <point x="310" y="662"/>
      <point x="406" y="662" type="curve" smooth="yes"/>
      <point x="476" y="662"/>
      <point x="526" y="641"/>
      <point x="544" y="614" type="curve"/>
      <point x="582" y="705" type="line"/>
      <point x="564" y="760"/>
      <point x="520" y="789"/>
    </contour>
    <contour>
      <point x="199" y="490"/>
      <point x="155" y="435"/>
      <point x="155" y="368" type="curve" smooth="yes"/>
      <point x="155" y="302"/>
      <point x="198" y="249"/>
      <point x="309" y="236" type="curve" smooth="yes"/>
      <point x="394" y="226"/>
      <point x="415" y="202"/>
      <point x="414" y="180" type="curve" smooth="yes"/>
      <point x="414" y="160"/>
      <point x="398" y="122"/>
      <point x="279" y="122" type="curve" smooth="yes"/>
      <point x="181" y="122"/>
      <point x="145" y="152"/>
      <point x="124" y="190" type="curve"/>
      <point x="81" y="93" type="line"/>
      <point x="98" y="38"/>
      <point x="132" y="-10"/>
      <point x="259" y="-10" type="curve" smooth="yes"/>
      <point x="435" y="-10"/>
      <point x="492" y="91"/>
      <point x="492" y="182" type="curve" smooth="yes"/>
      <point x="493" y="253"/>
      <point x="455" y="324"/>
      <point x="335" y="336" type="curve" smooth="yes"/>
      <point x="250" y="344"/>
      <point x="233" y="366"/>
      <point x="233" y="392" type="curve" smooth="yes"/>
      <point x="240" y="432"/>
      <point x="260" y="476"/>
      <point x="358" y="476" type="curve"/>
      <point x="271" y="515" type="line"/>
    </contour>
  </outline>
</glyph>
<glyph name="dieresis" format="1">
  <advance width="520"/>
  <unicode hex="00A8"/>
  <outline>
    <contour>
      <point x="354" y="666"/>
      <point x="386" y="698"/>
      <point x="386" y="736" type="curve" smooth="yes"/>
      <point x="386" y="771"/>
      <point x="365" y="798"/>
      <point x="331" y="798" type="curve" smooth="yes"/>
      <point x="277" y="798"/>
      <point x="241" y="777"/>
      <point x="241" y="720" type="curve" smooth="yes"/>
      <point x="241" y="691"/>
      <point x="263" y="666"/>
      <point x="304" y="666" type="curve" smooth="yes"/>
    </contour>
    <contour>
      <point x="558" y="666"/>
      <point x="590" y="698"/>
      <point x="590" y="736" type="curve" smooth="yes"/>
      <point x="590" y="771"/>
      <point x="569" y="798"/>
      <point x="535" y="798" type="curve" smooth="yes"/>
      <point x="481" y="798"/>
      <point x="445" y="777"/>
      <point x="445" y="720" type="curve" smooth="yes"/>
      <point x="445" y="691"/>
      <point x="467" y="666"/>
      <point x="508" y="666" type="curve" smooth="yes"/>
    </contour>
  </outline>
</glyph>
<glyph name="copyright" format="1">
  <advance width="370"/>
  <unicode hex="00A9"/>
  <outline>
    <contour>
      <point x="160" y="576" type="curve"/>
      <point x="161" y="466"/>
      <point x="229" y="417"/>
      <point x="307" y="417" type="curve" smooth="yes"/>
      <point x="392" y="417"/>
      <point x="453" y="467"/>
      <point x="454" y="577" type="curve"/>
      <point x="453" y="687"/>
      <point x="382" y="736"/>
      <point x="304" y="736" type="curve" smooth="yes"/>
      <point x="219" y="736"/>
      <point x="161" y="686"/>
    </contour>
    <contour>
      <point x="188" y="644"/>
      <point x="240" y="692"/>
      <point x="304" y="692" type="curve" smooth="yes"/>
      <point x="371" y="692"/>
      <point x="426" y="643"/>
      <point x="426" y="577" type="curve"/>
      <point x="423" y="483"/>
      <point x="371" y="461"/>
      <point x="307" y="461" type="curve" smooth="yes"/>
      <point x="240" y="461"/>
      <point x="191" y="495"/>
      <point x="188" y="576" type="curve"/>
    </contour>
    <contour>
      <point x="363" y="550" type="line"/>
      <point x="357" y="530"/>
      <point x="335" y="518"/>
      <point x="306" y="518" type="curve" smooth="yes"/>
      <point x="265" y="518"/>
      <point x="247" y="536"/>
      <point x="247" y="569" type="curve" smooth="yes"/>
      <point x="247" y="601"/>
      <point x="267" y="618"/>
      <point x="305" y="618" type="curve" smooth="yes"/>
      <point x="332" y="618"/>
      <point x="350" y="611"/>
      <point x="359" y="600" type="curve"/>
      <point x="376" y="615" type="line"/>
      <point x="366" y="653"/>
      <point x="341" y="665"/>
      <point x="305" y="665" type="curve" smooth="yes"/>
      <point x="262" y="665"/>
      <point x="228" y="641"/>
      <point x="228" y="572" type="curve" smooth="yes"/>
      <point x="228" y="510"/>
      <point x="260" y="484"/>
      <point x="303" y="484" type="curve" smooth="yes"/>
      <point x="345" y="484"/>
      <point x="370" y="503"/>
      <point x="378" y="539" type="curve"/>
    </contour>
  </outline>
</glyph>
<glyph name="registered" format="1">
  <advance width="370"/>
  <unicode hex="00AE"/>
  <outline>
    <contour>
      <point x="160" y="576" type="curve"/>
      <point x="161" y="466"/>
      <point x="229" y="417"/>
      <point x="307" y="417" type="curve" smooth="yes"/>
      <point x="392" y="417"/>
      <point x="453" y="467"/>
      <point x="454" y="577" type="curve"/>
      <point x="453" y="687"/>
      <point x="382" y="736"/>
      <point x="304" y="736" type="curve" smooth="yes"/>
      <point x="219" y="736"/>
      <point x="161" y="686"/>
    </contour>
    <contour>
      <point x="188" y="644"/>
      <point x="240" y="692"/>
      <point x="304" y="692" type="curve" smooth="yes"/>
      <point x="371" y="692"/>
      <point x="426" y="643"/>
      <point x="426" y="577" type="curve"/>
      <point x="423" y="483"/>
      <point x="371" y="461"/>
      <point x="307" y="461" type="curve" smooth="yes"/>
      <point x="240" y="461"/>
      <point x="191" y="495"/>
      <point x="188" y="576" type="curve"/>
    </contour>
    <contour>
      <point x="320" y="556" type="line"/>
      <point x="355" y="557"/>
      <point x="371" y="573"/>
      <point x="371" y="607" type="curve" smooth="yes"/>
      <point x="371" y="646"/>
      <point x="348" y="662"/>
      <point x="305" y="662" type="curve"/>
      <point x="243" y="662" type="line"/>
      <point x="243" y="487" type="line"/>
      <point x="263" y="487" type="line"/>
      <point x="263" y="556" type="line"/>
    </contour>
    <contour>
      <point x="315" y="579" type="curve"/>
      <point x="263" y="579" type="line"/>
      <point x="263" y="621" type="line"/>
      <point x="315" y="621" type="line"/>
      <point x="342" y="621"/>
      <point x="353" y="616"/>
      <point x="353" y="601" type="curve" smooth="yes"/>
      <point x="354" y="588"/>
      <point x="342" y="579"/>
    </contour>
    <contour>
      <point x="337" y="500"/>
      <point x="347" y="485"/>
      <point x="362" y="485" type="curve"/>
      <point x="369" y="485"/>
      <point x="380" y="488"/>
      <point x="383" y="497" type="curve"/>
      <point x="377" y="520" type="line"/>
      <point x="374" y="517"/>
      <point x="369" y="517"/>
      <point x="364" y="517" type="curve" smooth="yes"/>
      <point x="356" y="517"/>
      <point x="353" y="520"/>
      <point x="351" y="535" type="curve" smooth="yes"/>
      <point x="347" y="556"/>
      <point x="331" y="566"/>
      <point x="299" y="567" type="curve"/>
      <point x="259" y="567" type="line"/>
      <point x="259" y="544" type="line"/>
      <point x="306" y="544" type="line"/>
      <point x="320" y="544"/>
      <point x="331" y="539"/>
      <point x="333" y="527" type="curve" smooth="yes"/>
    </contour>
  </outline>
</glyph>
<glyph name="cedilla" format="1">
  <advance width="520"/>
  <unicode hex="00B8"/>
  <outline>
    <contour>
      <point x="218" y="-210" type="curve" smooth="yes"/>
      <point x="319" y="-210"/>
      <point x="369" y="-161"/>
      <point x="369" y="-102" type="curve" smooth="yes"/>
      <point x="369" y="-66"/>
      <point x="344" y="-43"/>
      <point x="318" y="-43" type="curve" smooth="yes"/>
      <point x="274" y="-43"/>
      <point x="268" y="-38"/>
      <point x="268" y="-29" type="curve" smooth="yes"/>
      <point x="268" y="-18"/>
      <point x="273" y="-8"/>
      <point x="280" y="0" type="curve"/>
      <point x="235" y="10" type="line"/>
      <point x="216" y="-11"/>
      <point x="201" y="-39"/>
      <point x="201" y="-58" type="curve" smooth="yes"/>
      <point x="201" y="-78"/>
      <point x="219" y="-94"/>
      <point x="244" y="-94" type="curve" smooth="yes"/>
      <point x="260" y="-94"/>
      <point x="279" y="-90"/>
      <point x="296" y="-90" type="curve" smooth="yes"/>
      <point x="314" y="-90"/>
      <point x="328" y="-100"/>
      <point x="323" y="-112" type="curve" smooth="yes"/>
      <point x="319" y="-122"/>
      <point x="305" y="-134"/>
      <point x="239" y="-134" type="curve" smooth="yes"/>
      <point x="196" y="-134"/>
      <point x="167" y="-118"/>
      <point x="162" y="-101" type="curve"/>
      <point x="116" y="-157" type="line"/>
      <point x="116" y="-179"/>
      <point x="152" y="-210"/>
    </contour>
  </outline>
</glyph>
<glyph name="multiply" format="1">
  <advance width="520"/>
  <unicode hex="00D7"/>
  <outline>
    <contour>
      <point x="496" y="530" type="line"/>
      <point x="66" y="102" type="line"/>
      <point x="127" y="30" type="line"/>
      <point x="556" y="470" type="line"/>
    </contour>
    <contour>
      <point x="435" y="26" type="line"/>
      <point x="491" y="72" type="line"/>
      <point x="214" y="530" type="line"/>
      <point x="156" y="485" type="line"/>
    </contour>
  </outline>
</glyph>
<glyph name="Oslash" format="1">
  <advance width="670"/>
  <unicode hex="00D8"/>
  <outline>
    <contour>
      <point x="670" y="784" type="line"/>
      <point x="105" y="-66" type="line"/>
      <point x="177" y="-80" type="line"/>
      <point x="742" y="770" type="line"/>
    </contour>
    <component base="O" xOffset="10"/>
  </outline>
</glyph>
<glyph name="germandbls" format="1">
  <advance width="520"/>
  <unicode hex="00DF"/>
  <outline>
    <contour>
      <point x="242" y="0" type="line"/>
      <point x="431" y="0"/>
      <point x="522" y="109"/>
      <point x="522" y="233" type="curve" smooth="yes"/>
      <point x="522" y="299"/>
      <point x="491" y="364"/>
      <point x="428" y="373" type="curve"/>
      <point x="519" y="388"/>
      <point x="570" y="467"/>
      <point x="570" y="558" type="curve" smooth="yes"/>
      <point x="570" y="653"/>
      <point x="504" y="740"/>
      <point x="401" y="740" type="curve" smooth="yes"/>
      <point x="294" y="740"/>
      <point x="199" y="671"/>
      <point x="171" y="539" type="curve"/>
      <point x="56" y="0" type="line"/>
      <point x="119" y="0" type="line"/>
      <point x="223" y="491" type="line" smooth="yes"/>
      <point x="235" y="549"/>
      <point x="280" y="581"/>
      <point x="383" y="581" type="curve" smooth="yes"/>
      <point x="465" y="581"/>
      <point x="504" y="534"/>
      <point x="503" y="494" type="curve" smooth="yes"/>
      <point x="503" y="441"/>
      <point x="450" y="410"/>
      <point x="340" y="410" type="curve"/>
      <point x="262" y="410" type="line"/>
      <point x="244" y="324" type="line"/>
      <point x="321" y="324" type="line"/>
      <point x="419" y="324"/>
      <point x="462" y="274"/>
      <point x="462" y="229" type="curve" smooth="yes"/>
      <point x="462" y="159"/>
      <point x="399" y="125"/>
      <point x="279" y="125" type="curve" smooth="yes"/>
      <point x="203" y="125" type="line"/>
      <point x="176" y="0" type="line"/>
    </contour>
  </outline>
</glyph>
<glyph name="hbar" format="1">
  <advance width="520"/>
  <unicode hex="0127"/>
  <outline>
    <contour>
      <point x="378" y="617" type="line"/>
      <point x="394" y="691" type="line"/>
      <point x="103" y="691" type="line"/>
      <point x="87" y="617" type="line"/>
    </contour>
    <component base="h" xOffset="10"/>
  </outline>
</glyph>
<glyph name="ij" format="1">
  <advance width="520"/>
  <unicode hex="0133"/>
  <outline>
    <contour>
      <point x="430" y="-67" type="curve" smooth="yes"/>
      <point x="559" y="540" type="line"/>
      <point x="395" y="540" type="line"/>
      <point x="358" y="368" type="line"/>
      <point x="459" y="368" type="line"/>
      <point x="383" y="11" type="line" smooth="yes"/>
      <point x="369" y="-58"/>
      <point x="337" y="-78"/>
      <point x="291" y="-80" type="curve" smooth="yes"/>
      <point x="267" y="-81"/>
      <point x="237" y="-73"/>
      <point x="221" y="-48" type="curve"/>
      <point x="172" y="-148" type="line"/>
      <point x="184" y="-179"/>
      <point x="217" y="-210"/>
      <point x="281" y="-210" type="curve" smooth="yes"/>
      <point x="357" y="-210"/>
      <point x="410" y="-159"/>
    </contour>
    <contour>
      <point x="577" y="625"/>
      <point x="617" y="669"/>
      <point x="617" y="728" type="curve" smooth="yes"/>
      <point x="617" y="767"/>
      <point x="591" y="790"/>
      <point x="548" y="790" type="curve" smooth="yes"/>
      <point x="475" y="790"/>
      <point x="440" y="754"/>
      <point x="440" y="690" type="curve" smooth="yes"/>
      <point x="440" y="651"/>
      <point x="465" y="625"/>
      <point x="513" y="625" type="curve" smooth="yes"/>
    </contour>
    <component base="i" xOffset="9"/>
  </outline>
</glyph>
<glyph name="lslash" format="1">
  <advance width="370"/>
  <unicode hex="0142"/>
  <outline>
    <contour>
      <point x="400" y="419" type="line"/>
      <point x="428" y="550" type="line"/>
      <point x="79" y="401" type="line"/>
      <point x="51" y="270" type="line"/>
    </contour>
    <component base="l" xOffset="10"/>
  </outline>
</glyph>
<glyph name="OE" format="1">
  <advance width="920"/>
  <unicode hex="0152"/>
  <outline>
    <contour>
      <point x="477" y="142" type="line"/>
      <point x="444" y="133"/>
      <point x="409" y="129"/>
      <point x="374" y="129" type="curve"/>
      <point x="268" y="129"/>
      <point x="175" y="211"/>
      <point x="174" y="325" type="curve" smooth="yes"/>
      <point x="174" y="441"/>
      <point x="258" y="544"/>
      <point x="442" y="544" type="curve"/>
      <point x="487" y="544"/>
      <point x="524" y="534"/>
      <point x="555" y="518" type="curve"/>
      <point x="599" y="709" type="line"/>
      <point x="566" y="729"/>
      <point x="527" y="740"/>
      <point x="484" y="740" type="curve"/>
      <point x="273" y="740"/>
      <point x="107" y="566"/>
      <point x="107" y="255" type="curve" smooth="yes"/>
      <point x="107" y="94"/>
      <point x="208" y="-10"/>
      <point x="344" y="-10" type="curve"/>
      <point x="380" y="-10"/>
      <point x="415" y="-4"/>
      <point x="448" y="6" type="curve"/>
    </contour>
    <contour>
      <point x="423" y="0" type="line"/>
      <point x="825" y="0" type="line"/>
      <point x="853" y="131" type="line"/>
      <point x="520" y="131" type="line"/>
      <point x="558" y="312" type="line"/>
      <point x="798" y="312" type="line"/>
      <point x="817" y="398" type="line"/>
      <point x="576" y="398" type="line"/>
      <point x="608" y="550" type="line"/>
      <point x="937" y="550" type="line"/>
      <point x="975" y="730" type="line"/>
      <point x="578" y="730" type="line"/>
    </contour>
  </outline>
</glyph>
<glyph name="oe" format="1">
  <advance width="920"/>
  <unicode hex="0153"/>
  <outline>
    <contour>
      <point x="499" y="197" type="line"/>
      <point x="463" y="126"/>
      <point x="392" y="107"/>
      <point x="319" y="107" type="curve"/>
      <point x="243" y="107"/>
      <point x="183" y="145"/>
      <point x="181" y="225" type="curve" smooth="yes"/>
      <point x="181" y="307"/>
      <point x="248" y="402"/>
      <point x="382" y="402" type="curve"/>
      <point x="454" y="402"/>
      <point x="495" y="372"/>
      <point x="512" y="331" type="curve"/>
      <point x="582" y="424" type="line"/>
      <point x="563" y="512"/>
      <point x="502" y="560"/>
      <point x="416" y="560" type="curve"/>
      <point x="242" y="560"/>
      <point x="119" y="423"/>
      <point x="119" y="194" type="curve"/>
      <point x="119" y="69"/>
      <point x="189" y="-10"/>
      <point x="294" y="-10" type="curve"/>
      <point x="398" y="-10"/>
      <point x="481" y="43"/>
      <point x="532" y="129" type="curve"/>
    </contour>
    <component base="e" xOffset="389"/>
  </outline>
</glyph>
<glyph name="tcaron" format="1">
  <advance width="420"/>
  <unicode hex="0165"/>
  <outline>
    <contour>
      <point x="342" y="587" type="curve"/>
      <point x="358" y="573" type="line"/>
      <point x="453" y="601"/>
      <point x="533" y="710"/>
      <point x="539" y="800" type="curve"/>
      <point x="419" y="800" type="line"/>
      <point x="432" y="737"/>
      <point x="394" y="624"/>
    </contour>
    <component base="t" xOffset="10"/>
  </outline>
</glyph>
<glyph name="tbar" format="1">
  <advance width="420"/>
  <unicode hex="0167"/>
  <outline>
    <contour>
      <point x="383" y="256" type="line"/>
      <point x="399" y="330" type="line"/>
      <point x="107" y="330" type="line"/>
      <point x="91" y="256" type="line"/>
    </contour>
    <component base="t" xOffset="10"/>
  </outline>
</glyph>
<glyph name="longs" format="1">
  <advance width="320"/>
  <unicode hex="017F"/>
  <outline>
    <contour>
      <point x="225" y="498" type="line"/>
      <point x="248" y="608"/>
      <point x="291" y="644"/>
      <point x="351" y="644" type="curve" smooth="yes"/>
      <point x="388" y="644"/>
      <point x="414" y="632"/>
      <point x="424" y="617" type="curve"/>
      <point x="491" y="748" type="line"/>
      <point x="474" y="773"/>
      <point x="438" y="790"/>
      <point x="375" y="790" type="curve" smooth="yes"/>
      <point x="277" y="790"/>
      <point x="211" y="725"/>
      <point x="164" y="504" type="curve"/>
      <point x="163" y="504" type="line"/>
      <point x="56" y="0" type="line"/>
      <point x="119" y="0" type="line"/>
    </contour>
  </outline>
</glyph>
<glyph name="dotlessj" format="1">
  <advance width="320"/>
  <unicode hex="0237"/>
  <outline>
    <contour>
      <point x="230" y="-67" type="curve" smooth="yes"/>
      <point x="359" y="540" type="line"/>
      <point x="175" y="540" type="line"/>
      <point x="138" y="368" type="line"/>
      <point x="259" y="368" type="line"/>
      <point x="183" y="11" type="line" smooth="yes"/>
      <point x="169" y="-58"/>
      <point x="137" y="-78"/>
      <point x="91" y="-80" type="curve" smooth="yes"/>
      <point x="67" y="-81"/>
      <point x="37" y="-73"/>
      <point x="21" y="-48" type="curve"/>
      <point x="-28" y="-148" type="line"/>
      <point x="-16" y="-179"/>
      <point x="17" y="-210"/>
      <point x="81" y="-210" type="curve" smooth="yes"/>
      <point x="157" y="-210"/>
      <point x="210" y="-159"/>
    </contour>
  </outline>
</glyph>
<glyph name="schwa" format="1">
  <advance width="520"/>
  <unicode hex="0259"/>
  <unicode hex="01DD"/>
  <outline>
    <contour>
      <point x="487" y="204"/>
      <point x="402" y="132"/>
      <point x="294" y="132" type="curve" smooth="yes"/>
      <point x="191" y="132"/>
      <point x="157" y="160"/>
      <point x="157" y="194" type="curve" smooth="yes"/>
      <point x="157" y="230"/>
      <point x="198" y="261"/>
      <point x="293" y="267" type="curve" smooth="yes"/>
      <point x="506" y="280" type="line"/>
      <point x="519" y="339" type="line"/>
      <point x="324" y="329" type="line" smooth="yes"/>
      <point x="157" y="320"/>
      <point x="93" y="275"/>
      <point x="93" y="162" type="curve" smooth="yes"/>
      <point x="93" y="59"/>
      <point x="162" y="-10"/>
      <point x="260" y="-10" type="curve" smooth="yes"/>
      <point x="422" y="-10"/>
      <point x="549" y="102"/>
      <point x="549" y="352" type="curve" smooth="yes"/>
      <point x="549" y="465"/>
      <point x="496" y="560"/>
      <point x="378" y="560" type="curve" smooth="yes"/>
      <point x="270" y="560"/>
      <point x="183" y="510"/>
      <point x="141" y="434" type="curve"/>
      <point x="179" y="399" type="line"/>
      <point x="213" y="436"/>
      <point x="275" y="450"/>
      <point x="346" y="449" type="curve" smooth="yes"/>
      <point x="438" y="448"/>
      <point x="487" y="402"/>
      <point x="487" y="322" type="curve" smooth="yes"/>
    </contour>
  </outline>
</glyph>
<glyph name="circumflex" format="1">
  <advance width="520"/>
  <unicode hex="02C6"/>
  <outline>
    <contour>
      <point x="570" y="625" type="curve"/>
      <point x="577" y="659" type="line"/>
      <point x="516" y="670"/>
      <point x="459" y="741"/>
      <point x="440" y="800" type="curve"/>
      <point x="420" y="800" type="line"/>
      <point x="377" y="741"/>
      <point x="288" y="670"/>
      <point x="223" y="659" type="curve"/>
      <point x="216" y="625" type="line"/>
      <point x="281" y="620"/>
      <point x="377" y="639"/>
      <point x="404" y="679" type="curve"/>
      <point x="415" y="639"/>
      <point x="503" y="620"/>
    </contour>
  </outline>
</glyph>
<glyph name="caron" format="1">
  <advance width="520"/>
  <unicode hex="02C7"/>
  <outline>
    <contour>
      <point x="607" y="800" type="line"/>
      <point x="538" y="805"/>
      <point x="446" y="786"/>
      <point x="419" y="746" type="curve"/>
      <point x="408" y="786"/>
      <point x="324" y="805"/>
      <point x="253" y="800" type="curve"/>
      <point x="246" y="766" type="line"/>
      <point x="309" y="754"/>
      <point x="365" y="685"/>
      <point x="383" y="625" type="curve"/>
      <point x="403" y="625" type="line"/>
      <point x="447" y="685"/>
      <point x="531" y="754"/>
      <point x="600" y="766" type="curve"/>
    </contour>
  </outline>
</glyph>
<glyph name="breve" format="1">
  <advance width="520"/>
  <unicode hex="02D8"/>
  <outline>
    <contour>
      <point x="387" y="619" type="curve"/>
      <point x="486" y="619"/>
      <point x="568" y="674"/>
      <point x="595" y="800" type="curve"/>
      <point x="546" y="800" type="line"/>
      <point x="532" y="729"/>
      <point x="472" y="706"/>
      <point x="405" y="706" type="curve"/>
      <point x="346" y="706"/>
      <point x="299" y="729"/>
      <point x="315" y="800" type="curve"/>
      <point x="265" y="800" type="line"/>
      <point x="238" y="674"/>
      <point x="294" y="619"/>
    </contour>
  </outline>
</glyph>
<glyph name="ring" format="1">
  <advance width="520"/>
  <unicode hex="02DA"/>
  <outline>
    <contour>
      <point x="460" y="593"/>
      <point x="513" y="643"/>
      <point x="513" y="716" type="curve" smooth="yes"/>
      <point x="513" y="772"/>
      <point x="476" y="804"/>
      <point x="430" y="804" type="curve" smooth="yes"/>
      <point x="364" y="804"/>
      <point x="303" y="756"/>
      <point x="303" y="679" type="curve" smooth="yes"/>
      <point x="303" y="626"/>
      <point x="343" y="593"/>
      <point x="388" y="593" type="curve" smooth="yes"/>
    </contour>
    <contour>
      <point x="478" y="674"/>
      <point x="453" y="650"/>
      <point x="400" y="650" type="curve" smooth="yes"/>
      <point x="358" y="650"/>
      <point x="339" y="670"/>
      <point x="339" y="693" type="curve" smooth="yes"/>
      <point x="339" y="721"/>
      <point x="365" y="745"/>
      <point x="418" y="745" type="curve" smooth="yes"/>
      <point x="461" y="745"/>
      <point x="478" y="721"/>
      <point x="478" y="697" type="curve" smooth="yes"/>
    </contour>
  </outline>
</glyph>
<glyph name="ogonek" format="1">
  <advance width="520"/>
  <unicode hex="02DB"/>
  <outline>
    <contour>
      <point x="366" y="-155" type="line"/>
      <point x="350" y="-162"/>
      <point x="334" y="-163"/>
      <point x="318" y="-163" type="curve" smooth="yes"/>
      <point x="278" y="-162"/>
      <point x="250" y="-133"/>
      <point x="250" y="-96" type="curve" smooth="yes"/>
      <point x="250" y="-57"/>
      <point x="275" y="-14"/>
      <point x="299" y="0" type="curve"/>
      <point x="268" y="32" type="line"/>
      <point x="178" y="-19"/>
      <point x="152" y="-75"/>
      <point x="152" y="-114" type="curve" smooth="yes"/>
      <point x="153" y="-165"/>
      <point x="191" y="-210"/>
      <point x="267" y="-210" type="curve" smooth="yes"/>
      <point x="308" y="-210"/>
      <point x="347" y="-203"/>
      <point x="371" y="-190" type="curve"/>
    </contour>
  </outline>
</glyph>
<glyph name="tilde" format="1">
  <advance width="520"/>
  <unicode hex="02DC"/>
  <outline>
    <contour>
      <point x="429" y="786" type="curve" smooth="yes"/>
      <point x="353" y="808"/>
      <point x="275" y="756"/>
      <point x="231" y="679" type="curve"/>
      <point x="235" y="666" type="line"/>
      <point x="262" y="691"/>
      <point x="328" y="703"/>
      <point x="402" y="675" type="curve" smooth="yes"/>
      <point x="462" y="652"/>
      <point x="548" y="691"/>
      <point x="599" y="777" type="curve"/>
      <point x="595" y="790" type="line"/>
      <point x="571" y="769"/>
      <point x="500" y="766"/>
    </contour>
  </outline>
</glyph>
<glyph name="Delta" format="1">
  <advance width="670"/>
  <unicode hex="0394"/>
  <outline>
    <contour>
      <point x="102" y="0" type="line"/>
      <point x="599" y="0" type="line"/>
      <point x="626" y="126" type="line"/>
      <point x="129" y="126" type="line"/>
    </contour>
    <contour>
      <point x="545" y="730" type="line"/>
      <point x="426" y="730" type="line"/>
      <point x="22" y="0" type="line"/>
      <point x="138" y="0" type="line"/>
      <point x="510" y="626" type="line"/>
      <point x="478" y="626" type="line"/>
      <point x="577" y="0" type="line"/>
      <point x="648" y="0" type="line"/>
    </contour>
  </outline>
</glyph>
<glyph name="quoteleft" format="1">
  <advance width="220"/>
  <unicode hex="2018"/>
  <outline>
    <contour>
      <point x="342" y="736" type="curve"/>
      <point x="325" y="750" type="line"/>
      <point x="218" y="718"/>
      <point x="135" y="570"/>
      <point x="140" y="453" type="curve"/>
      <point x="263" y="453" type="line"/>
      <point x="236" y="537"/>
      <point x="272" y="682"/>
    </contour>
  </outline>
</glyph>
<glyph name="dagger" format="1">
  <advance width="420"/>
  <unicode hex="2020"/>
  <outline>
    <contour>
      <point x="448" y="730" type="line"/>
      <point x="356" y="593" type="line"/>
      <point x="492" y="630" type="line"/>
      <point x="465" y="503" type="line"/>
      <point x="345" y="542" type="line"/>
      <point x="319" y="445"/>
      <point x="342" y="388"/>
      <point x="386" y="375" type="curve"/>
      <point x="324" y="340"/>
      <point x="290" y="285"/>
      <point x="229" y="0" type="curve"/>
      <point x="190" y="0" type="line"/>
      <point x="251" y="285"/>
      <point x="239" y="340"/>
      <point x="193" y="375" type="curve"/>
      <point x="244" y="388"/>
      <point x="289" y="445"/>
      <point x="306" y="542" type="curve"/>
      <point x="169" y="503" type="line"/>
      <point x="196" y="630" type="line"/>
      <point x="316" y="593" type="line"/>
      <point x="285" y="730" type="line"/>
    </contour>
  </outline>
</glyph>
<glyph name="ellipsis" format="1">
  <advance width="820"/>
  <unicode hex="2026"/>
  <outline>
    <contour>
      <point x="222" y="-5"/>
      <point x="254" y="27"/>
      <point x="254" y="75" type="curve"/>
      <point x="254" y="111"/>
      <point x="233" y="140"/>
      <point x="198" y="140" type="curve"/>
      <point x="140" y="140"/>
      <point x="109" y="101"/>
      <point x="109" y="54" type="curve" smooth="yes"/>
      <point x="109" y="23"/>
      <point x="132" y="-5"/>
      <point x="170" y="-5" type="curve" smooth="yes"/>
    </contour>
    <contour>
      <point x="465" y="-5"/>
      <point x="497" y="27"/>
      <point x="497" y="75" type="curve"/>
      <point x="497" y="111"/>
      <point x="476" y="140"/>
      <point x="441" y="140" type="curve"/>
      <point x="383" y="140"/>
      <point x="352" y="101"/>
      <point x="352" y="54" type="curve" smooth="yes"/>
      <point x="352" y="23"/>
      <point x="375" y="-5"/>
      <point x="413" y="-5" type="curve" smooth="yes"/>
    </contour>
    <contour>
      <point x="707" y="-5"/>
      <point x="739" y="27"/>
      <point x="739" y="75" type="curve"/>
      <point x="739" y="111"/>
      <point x="718" y="140"/>
      <point x="683" y="140" type="curve"/>
      <point x="625" y="140"/>
      <point x="594" y="101"/>
      <point x="594" y="54" type="curve" smooth="yes"/>
      <point x="594" y="23"/>
      <point x="617" y="-5"/>
      <point x="655" y="-5" type="curve" smooth="yes"/>
    </contour>
  </outline>
</glyph>
<glyph name="perthousand" format="1">
  <advance width="1020"/>
  <unicode hex="2030"/>
  <outline>
    <contour>
      <point x="935" y="-10"/>
      <point x="1010" y="61"/>
      <point x="1010" y="160" type="curve" smooth="yes"/>
      <point x="1010" y="231"/>
      <point x="963" y="274"/>
      <point x="904" y="274" type="curve" smooth="yes"/>
      <point x="817" y="274"/>
      <point x="740" y="201"/>
      <point x="740" y="105" type="curve" smooth="yes"/>
      <point x="740" y="33"/>
      <point x="787" y="-10"/>
      <point x="846" y="-10" type="curve" smooth="yes"/>
    </contour>
    <contour>
      <point x="958" y="97"/>
      <point x="921" y="69"/>
      <point x="863" y="69" type="curve" smooth="yes"/>
      <point x="821" y="69"/>
      <point x="790" y="88"/>
      <point x="790" y="121" type="curve" smooth="yes"/>
      <point x="790" y="157"/>
      <point x="826" y="186"/>
      <point x="885" y="186" type="curve" smooth="yes"/>
      <point x="929" y="186"/>
      <point x="958" y="164"/>
      <point x="958" y="130" type="curve" smooth="yes"/>
    </contour>
    <component base="percent" xOffset="10"/>
  </outline>
</glyph>
<glyph name="guilsinglleft" format="1">
  <advance width="270"/>
  <unicode hex="2039"/>
  <outline>
    <contour>
      <point x="113" y="271" type="line"/>
      <point x="205" y="-10" type="line"/>
      <point x="250" y="204" type="line"/>
      <point x="161" y="271" type="line"/>
      <point x="292" y="360" type="line"/>
      <point x="336" y="570" type="line"/>
    </contour>
  </outline>
</glyph>
<glyph name="guilsinglright" format="1">
  <advance width="270"/>
  <unicode hex="203A"/>
  <outline>
    <contour>
      <point x="273" y="271" type="line"/>
      <point x="177" y="570" type="line"/>
      <point x="133" y="360" type="line"/>
      <point x="224" y="271" type="line"/>
      <point x="105" y="204" type="line"/>
      <point x="60" y="-10" type="line"/>
    </contour>
  </outline>
</glyph>
<glyph name="arrowleft" format="1">
  <advance width="720"/>
  <unicode hex="2190"/>
  <outline>
    <contour>
      <point x="757.0" y="416.0" type="line"/>
      <point x="420.0" y="416.0" type="line"/>
      <point x="370.0" y="416.0"/>
      <point x="309.0" y="379.0"/>
      <point x="276.0" y="344.0" type="curve"/>
      <point x="276.0" y="513.0" type="line"/>
      <point x="63.0" y="295.0" type="line"/>
      <point x="276.0" y="78.0" type="line"/>
      <point x="276.0" y="247.0" type="line"/>
      <point x="306.0" y="212.0"/>
      <point x="370.0" y="175.0"/>
      <point x="411.0" y="175.0" type="curve"/>
      <point x="757.0" y="175.0" type="line"/>
      <point x="677.0" y="295.0" type="line"/>
    </contour>
  </outline>
</glyph>
<glyph name="greaterequal" format="1">
  <advance width="520"/>
  <unicode hex="2265"/>
  <outline>
    <contour>
      <point x="82" y="58" type="line"/>
      <point x="460" y="58" type="line"/>
      <point x="484" y="167" type="line"/>
      <point x="106" y="167" type="line"/>
    </contour>
    <contour>
      <point x="505" y="357" type="line"/>
      <point x="524" y="447" type="line"/>
      <point x="206" y="637" type="line"/>
      <point x="179" y="510" type="line"/>
      <point x="466" y="403" type="line"/>
      <point x="137" y="316" type="line"/>
      <point x="113" y="203" type="line"/>
    </contour>
  </outline>
</glyph>
<glyph name="poinggauche" format="1">
  <advance width="870"/>
  <unicode hex="261A"/>
  <outline>
    <contour>
      <point x="367.0" y="97.0"/>
      <point x="410.0" y="139.0"/>
      <point x="410.0" y="245.0" type="curve" smooth="yes"/>
      <point x="410.0" y="300.0"/>
      <point x="401.0" y="335.0"/>
      <point x="379.0" y="346.0" type="curve"/>
      <point x="369.0" y="338.0"/>
      <point x="346.0" y="334.0"/>
      <point x="319.0" y="334.0" type="curve" smooth="yes"/>
      <point x="272.0" y="334.0"/>
      <point x="235.0" y="381.0"/>
      <point x="235.0" y="429.0" type="curve" smooth="yes"/>
      <point x="235.0" y="456.0"/>
      <point x="241.0" y="468.0"/>
      <point x="249.0" y="478.0" type="curve"/>
      <point x="164.0" y="492.0"/>
      <point x="101.0" y="443.0"/>
      <point x="101.0" y="296.0" type="curve" smooth="yes"/>
      <point x="101.0" y="144.0"/>
      <point x="157.0" y="97.0"/>
      <point x="262.0" y="97.0" type="curve" smooth="yes"/>
    </contour>
    <contour>
      <point x="412.0" y="127.0" type="curve"/>
      <point x="429.0" y="124.0"/>
      <point x="444.0" y="127.0"/>
      <point x="487.0" y="135.0" type="curve" smooth="yes"/>
      <point x="520.0" y="147.0"/>
      <point x="561.0" y="185.0"/>
      <point x="561.0" y="313.0" type="curve" smooth="yes"/>
      <point x="561.0" y="418.0"/>
      <point x="542.0" y="448.0"/>
      <point x="505.0" y="476.0" type="curve" smooth="yes"/>
      <point x="485.0" y="491.0"/>
      <point x="443.0" y="518.0"/>
      <point x="425.0" y="520.0" type="curve" smooth="yes"/>
      <point x="371.0" y="526.0"/>
      <point x="336.0" y="511.0"/>
      <point x="309.0" y="493.0" type="curve" smooth="yes"/>
      <point x="283.0" y="476.0"/>
      <point x="270.0" y="459.0"/>
      <point x="270.0" y="443.0" type="curve" smooth="yes"/>
      <point x="270.0" y="400.0"/>
      <point x="290.0" y="376.0"/>
      <point x="345.0" y="376.0" type="curve"/>
      <point x="384.0" y="376.0"/>
      <point x="424.0" y="400.0"/>
      <point x="424.0" y="447.0" type="curve"/>
      <point x="432.0" y="449.0" type="line"/>
      <point x="445.0" y="408.0"/>
      <point x="429.0" y="376.0"/>
      <point x="409.0" y="363.0" type="curve"/>
      <point x="456.0" y="328.0"/>
      <point x="464.0" y="181.0"/>
    </contour>
    <contour>
      <point x="577.0" y="168.0" type="curve"/>
      <point x="654.0" y="168.0" type="line" smooth="yes"/>
      <point x="701.0" y="168.0"/>
      <point x="727.0" y="212.0"/>
      <point x="727.0" y="260.0" type="curve" smooth="yes"/>
      <point x="727.0" y="283.0"/>
      <point x="720.0" y="293.0"/>
      <point x="705.0" y="293.0" type="curve" smooth="yes"/>
      <point x="685.0" y="293.0" type="line"/>
      <point x="703.0" y="241.0" type="line"/>
      <point x="696.0" y="238.0" type="line"/>
      <point x="657.0" y="299.0" type="line"/>
      <point x="622.0" y="238.0" type="line"/>
      <point x="614.0" y="241.0" type="line"/>
      <point x="631.0" y="293.0" type="line"/>
      <point x="602.0" y="293.0" type="line"/>
      <point x="602.0" y="246.0"/>
      <point x="591.0" y="204.0"/>
    </contour>
    <contour>
      <point x="749.0" y="410.0" type="line"/>
      <point x="764.0" y="355.0" type="line"/>
      <point x="893.0" y="379.0" type="line"/>
    </contour>
    <contour>
      <point x="764.0" y="336.0" type="line"/>
      <point x="764.0" y="275.0" type="line"/>
      <point x="893.0" y="305.0" type="line"/>
    </contour>
    <contour>
      <point x="764.0" y="253.0" type="line"/>
      <point x="749.0" y="197.0" type="line"/>
      <point x="893.0" y="233.0" type="line"/>
    </contour>
    <contour>
      <point x="577.0" y="447.0" type="line"/>
      <point x="591.0" y="411.0"/>
      <point x="602.0" y="369.0"/>
      <point x="602.0" y="322.0" type="curve"/>
      <point x="631.0" y="322.0" type="line"/>
      <point x="614.0" y="374.0" type="line"/>
      <point x="622.0" y="377.0" type="line"/>
      <point x="657.0" y="316.0" type="line"/>
      <point x="696.0" y="377.0" type="line"/>
      <point x="703.0" y="374.0" type="line"/>
      <point x="685.0" y="322.0" type="line"/>
      <point x="705.0" y="322.0" type="line" smooth="yes"/>
      <point x="720.0" y="322.0"/>
      <point x="727.0" y="332.0"/>
      <point x="727.0" y="355.0" type="curve" smooth="yes"/>
      <point x="727.0" y="403.0"/>
      <point x="701.0" y="447.0"/>
      <point x="654.0" y="447.0" type="curve" smooth="yes"/>
    </contour>
  </outline>
</glyph>
<glyph name="pansements" format="1">
  <advance width="520"/>
  <unicode hex="2716"/>
  <outline>
    <contour>
      <point x="104.0" y="213.0" type="line" smooth="yes"/>
      <point x="92.0" y="201.0"/>
      <point x="94.0" y="181.0"/>
      <point x="105.0" y="170.0" type="curve" smooth="yes"/>
      <point x="197.0" y="77.0" type="line" smooth="yes"/>
      <point x="208.0" y="66.0"/>
      <point x="229.0" y="66.0"/>
      <point x="240.0" y="77.0" type="curve" smooth="yes"/>
      <point x="541.0" y="377.0" type="line" smooth="yes"/>
      <point x="553.0" y="389.0"/>
      <point x="551.0" y="409.0"/>
      <point x="540.0" y="420.0" type="curve" smooth="yes"/>
      <point x="448.0" y="513.0" type="line" smooth="yes"/>
      <point x="437.0" y="524.0"/>
      <point x="417.0" y="525.0"/>
      <point x="405.0" y="513.0" type="curve" smooth="yes"/>
    </contour>
    <contour>
      <point x="234.0" y="520.0" type="line" smooth="yes"/>
      <point x="224.0" y="530.0"/>
      <point x="203.0" y="532.0"/>
      <point x="191.0" y="520.0" type="curve" smooth="yes"/>
      <point x="97.0" y="427.0" type="line" smooth="yes"/>
      <point x="85.0" y="415.0"/>
      <point x="87.0" y="393.0"/>
      <point x="97.0" y="383.0" type="curve" smooth="yes"/>
      <point x="159.0" y="323.0" type="line"/>
      <point x="294.0" y="459.0" type="line"/>
    </contour>
    <contour>
      <point x="548.0" y="207.0" type="curve" smooth="yes"/>
      <point x="486.0" y="269.0" type="line"/>
      <point x="351.0" y="132.0" type="line"/>
      <point x="411.0" y="70.0" type="line" smooth="yes"/>
      <point x="420.0" y="60.0"/>
      <point x="442.0" y="58.0"/>
      <point x="454.0" y="70.0" type="curve" smooth="yes"/>
      <point x="548.0" y="164.0" type="line" smooth="yes"/>
      <point x="559.0" y="175.0"/>
      <point x="558.0" y="197.0"/>
    </contour>
    <contour>
      <point x="331.0" y="404.0" type="line"/>
      <point x="345.0" y="419.0"/>
      <point x="365.0" y="419.0"/>
      <point x="379.0" y="405.0" type="curve" smooth="yes"/>
      <point x="434.0" y="350.0" type="line" smooth="yes"/>
      <point x="448.0" y="336.0"/>
      <point x="447.0" y="318.0"/>
      <point x="433.0" y="305.0" type="curve"/>
    </contour>
    <contour>
      <point x="314.0" y="186.0" type="line"/>
      <point x="300.0" y="171.0"/>
      <point x="280.0" y="171.0"/>
      <point x="266.0" y="185.0" type="curve" smooth="yes"/>
      <point x="212.0" y="239.0" type="line" smooth="yes"/>
      <point x="198.0" y="253.0"/>
      <point x="198.0" y="273.0"/>
      <point x="213.0" y="287.0" type="curve"/>
    </contour>
  </outline>
</glyph>
<glyph name="boum" format="1">
  <advance width="620"/>
  <unicode hex="2734"/>
  <outline>
    <contour>
      <point x="371.0" y="584.0" type="line"/>
      <point x="426.0" y="423.0" type="line"/>
      <point x="586.0" y="499.0" type="line"/>
      <point x="510.0" y="343.0" type="line"/>
      <point x="668.0" y="287.0" type="line"/>
      <point x="510.0" y="232.0" type="line"/>
      <point x="586.0" y="75.0" type="line"/>
      <point x="426.0" y="151.0" type="line"/>
      <point x="371.0" y="-10.0" type="line"/>
      <point x="317.0" y="151.0" type="line"/>
      <point x="158.0" y="75.0" type="line"/>
      <point x="234.0" y="232.0" type="line"/>
      <point x="74.0" y="287.0" type="line"/>
      <point x="234.0" y="343.0" type="line"/>
      <point x="158.0" y="499.0" type="line"/>
      <point x="317.0" y="423.0" type="line"/>
    </contour>
    <contour>
      <point x="371.0" y="415.0" type="line"/>
      <point x="339.0" y="365.0" type="line"/>
      <point x="283.0" y="377.0" type="line"/>
      <point x="293.0" y="320.0" type="line"/>
      <point x="244.0" y="287.0" type="line"/>
      <point x="293.0" y="259.0" type="line"/>
      <point x="283.0" y="199.0" type="line"/>
      <point x="339.0" y="211.0" type="line"/>
      <point x="371.0" y="159.0" type="line"/>
      <point x="401.0" y="211.0" type="line"/>
      <point x="461.0" y="199.0" type="line"/>
      <point x="447.0" y="259.0" type="line"/>
      <point x="501.0" y="287.0" type="line"/>
      <point x="447.0" y="320.0" type="line"/>
      <point x="461.0" y="377.0" type="line"/>
      <point x="401.0" y="365.0" type="line"/>
    </contour>
  </outline>
</glyph>
<glyph name="commaaccent" format="1">
  <advance width="570"/>
  <outline>
    <contour>
      <point x="121.0" y="-196.0" type="line"/>
      <point x="192.213592321" y="-146.667802983"/>
      <point x="231.0" y="-112.213753388"/>
      <point x="231.0" y="-56.0" type="curve"/>
      <point x="354.0" y="-56.0" type="line"/>
      <point x="354.0" y="-138.160035417"/>
      <point x="274.993131934" y="-182.784716184"/>
      <point x="137.0" y="-210.0" type="curve"/>
    </contour>
  </outline>
</glyph>
<glyph name="four.osf" format="1">
  <advance width="620"/>
  <outline>
    <contour>
      <point x="79" y="78" type="line"/>
      <point x="62" y="1" type="line"/>
      <point x="543" y="1" type="line"/>
      <point x="560" y="78" type="line"/>
      <point x="192" y="78" type="line"/>
      <point x="184" y="43" type="line"/>
      <point x="509" y="457" type="line"/>
      <point x="495" y="457" type="line"/>
      <point x="355" y="-200" type="line"/>
      <point x="424" y="-200" type="line"/>
      <point x="584" y="550" type="line"/>
      <point x="420" y="550" type="line"/>
    </contour>
  </outline>
</glyph>
<glyph name="nine.osf" format="1">
  <advance width="620"/>
  <outline>
    <contour>
      <point x="389" y="398" type="curve" smooth="yes"/>
      <point x="498" y="398"/>
      <point x="549" y="359"/>
      <point x="549" y="307" type="curve" smooth="yes"/>
      <point x="549" y="238"/>
      <point x="493" y="179"/>
      <point x="343" y="179" type="curve" smooth="yes"/>
      <point x="241" y="179"/>
      <point x="190" y="226"/>
      <point x="190" y="273" type="curve" smooth="yes"/>
      <point x="190" y="344"/>
      <point x="242" y="398"/>
    </contour>
    <contour>
      <point x="281" y="-210" type="curve" smooth="yes"/>
      <point x="461" y="-210"/>
      <point x="614" y="0"/>
      <point x="614" y="347" type="curve" smooth="yes"/>
      <point x="614" y="476"/>
      <point x="547" y="560"/>
      <point x="424" y="560" type="curve" smooth="yes"/>
      <point x="245" y="560"/>
      <point x="130" y="416"/>
      <point x="130" y="273" type="curve"/>
      <point x="130" y="150"/>
      <point x="202" y="70"/>
      <point x="317" y="70" type="curve" smooth="yes"/>
      <point x="407" y="70"/>
      <point x="479" y="102"/>
      <point x="521" y="161" type="curve"/>
      <point x="490" y="0"/>
      <point x="409" y="-69"/>
      <point x="294" y="-69" type="curve" smooth="yes"/>
      <point x="226" y="-69"/>
      <point x="163" y="-41"/>
      <point x="144" y="-11" type="curve"/>
      <point x="83" y="-99" type="line"/>
      <point x="106" y="-149"/>
      <point x="173" y="-210"/>
    </contour>
  </outline>
</glyph>
<glyph name="one.osf" format="1">
  <advance width="320"/>
  <outline>
    <contour>
      <point x="112" y="292" type="line"/>
      <point x="163" y="292"/>
      <point x="233" y="326"/>
      <point x="264" y="367" type="curve"/>
      <point x="186" y="0" type="line"/>
      <point x="249" y="0" type="line"/>
      <point x="366" y="550" type="line"/>
      <point x="275" y="550" type="line"/>
      <point x="254" y="497"/>
      <point x="188" y="453"/>
      <point x="146" y="453" type="curve"/>
    </contour>
  </outline>
</glyph>
<glyph name="seven.osf" format="1">
  <advance width="520"/>
  <outline>
    <contour>
      <point x="168" y="-200" type="line"/>
      <point x="212" y="6"/>
      <point x="371" y="225"/>
      <point x="559" y="404" type="curve"/>
      <point x="590" y="550" type="line"/>
      <point x="164" y="550" type="line"/>
      <point x="126" y="370" type="line"/>
      <point x="441" y="370" type="line"/>
      <point x="323" y="272"/>
      <point x="135" y="-10"/>
      <point x="94" y="-200" type="curve"/>
    </contour>
  </outline>
</glyph>
<glyph name="three.osf" format="1">
  <advance width="620"/>
  <outline>
    <contour>
      <point x="270" y="-210" type="curve" smooth="yes"/>
      <point x="454" y="-210"/>
      <point x="572" y="-93"/>
      <point x="572" y="85" type="curve" smooth="yes"/>
      <point x="572" y="182"/>
      <point x="518" y="256"/>
      <point x="413" y="264" type="curve"/>
      <point x="641" y="500" type="line"/>
      <point x="652" y="550" type="line"/>
      <point x="241" y="550" type="line"/>
      <point x="206" y="385" type="line"/>
      <point x="495" y="385" type="line"/>
      <point x="469" y="399" type="line"/>
      <point x="207" y="137" type="line"/>
      <point x="449" y="172"/>
      <point x="506" y="107"/>
      <point x="506" y="46" type="curve" smooth="yes"/>
      <point x="506" y="-25"/>
      <point x="432" y="-70"/>
      <point x="309" y="-70" type="curve" smooth="yes"/>
      <point x="244" y="-70"/>
      <point x="170" y="-51"/>
      <point x="141" y="-13" type="curve"/>
      <point x="80" y="-100" type="line"/>
      <point x="117" y="-165"/>
      <point x="188" y="-210"/>
    </contour>
  </outline>
</glyph>
<glyph name="vtf" format="1">
  <advance width="1200"/>
  <outline>
    <contour>
      <point x="234" y="0" type="line"/>
      <point x="327" y="0" type="line"/>
      <point x="439" y="92"/>
      <point x="565" y="246"/>
      <point x="565" y="381" type="curve" smooth="yes"/>
      <point x="565" y="399"/>
      <point x="559" y="426"/>
      <point x="559" y="443" type="curve" smooth="yes"/>
      <point x="559" y="484"/>
      <point x="564" y="525"/>
      <point x="544" y="550" type="curve"/>
      <point x="421" y="550" type="line"/>
      <point x="448" y="519"/>
      <point x="457" y="483"/>
      <point x="457" y="442" type="curve" smooth="yes"/>
      <point x="457" y="313"/>
      <point x="386" y="195"/>
      <point x="276" y="106" type="curve"/>
      <point x="288" y="106" type="line"/>
      <point x="224" y="550" type="line"/>
      <point x="156" y="550" type="line"/>
    </contour>
    <contour>
      <point x="1099" y="528" type="line"/>
      <point x="1099" y="601"/>
      <point x="1148" y="642"/>
      <point x="1214" y="642" type="curve" smooth="yes"/>
      <point x="1254" y="642"/>
      <point x="1278" y="637"/>
      <point x="1290" y="628" type="curve"/>
      <point x="1324" y="766" type="line"/>
      <point x="1309" y="777"/>
      <point x="1280" y="788"/>
      <point x="1238" y="788" type="curve" smooth="yes"/>
      <point x="1141" y="788"/>
      <point x="1033" y="712"/>
      <point x="1033" y="528" type="curve"/>
    </contour>
    <contour>
      <point x="844" y="109" type="curve" smooth="yes"/>
      <point x="764" y="111"/>
      <point x="727" y="136"/>
      <point x="744" y="217" type="curve" smooth="yes"/>
      <point x="783" y="400" type="line"/>
      <point x="1017" y="400" type="line"/>
      <point x="986" y="255" type="line"/>
      <point x="959" y="143"/>
      <point x="912" y="109"/>
    </contour>
    <contour>
      <point x="1049" y="255" type="curve"/>
      <point x="1080" y="400" type="line"/>
      <point x="1203" y="400" type="line"/>
      <point x="1237" y="550" type="line"/>
      <point x="815" y="550" type="line"/>
      <point x="842" y="670" type="line"/>
      <point x="769" y="670" type="line"/>
      <point x="752" y="550" type="line"/>
      <point x="514" y="550" type="line"/>
      <point x="480" y="400" type="line"/>
      <point x="720" y="400" type="line"/>
      <point x="673" y="178" type="line" smooth="yes"/>
      <point x="640" y="23"/>
      <point x="705" y="-30"/>
      <point x="819" y="-30" type="curve" smooth="yes"/>
      <point x="925" y="-30"/>
      <point x="1005" y="48"/>
    </contour>
  </outline>
</glyph>
